<svg xmlns="http://www.w3.org/2000/svg" version="1.1" xmlns:xlink="http://www.w3.org/1999/xlink" xmlns:svgjs="http://svgjs.dev/svgjs" width="1440" height="900" preserveAspectRatio="none" viewBox="0 0 1440 900"><g mask="url(&quot;#SvgjsMask1022&quot;)" fill="none"><path d="M-85.85 557.66L-85.85 557.66" stroke="rgba(55, 55, 55, 1)" stroke-width="1.5"></path><path d="M-85.85 557.66L-43.32 711.99" stroke="rgba(55, 55, 55, 1)" stroke-width="1.5"></path><path d="M-85.85 557.66L109.08 662.21" stroke="rgba(55, 55, 55, 1)" stroke-width="1.5"></path><path d="M-85.85 557.66L-67.73 819.1" stroke="rgba(55, 55, 55, 1)" stroke-width="1.5"></path><path d="M-85.85 557.66L73.64 798.41" stroke="rgba(55, 55, 55, 1)" stroke-width="1.5"></path><path d="M-85.85 557.66L232.73 541.3" stroke="rgba(55, 55, 55, 1)" stroke-width="1.5"></path><path d="M-43.32 711.99L-43.32 711.99" stroke="rgba(55, 55, 55, 1)" stroke-width="1.5"></path><path d="M-43.32 711.99L-67.73 819.1" stroke="rgba(55, 55, 55, 1)" stroke-width="1.5"></path><path d="M-43.32 711.99L73.64 798.41" stroke="rgba(55, 55, 55, 1)" stroke-width="1.5"></path><path d="M-43.32 711.99L109.08 662.21" stroke="rgba(55, 55, 55, 1)" stroke-width="1.5"></path><path d="M-43.32 711.99L-110.39 975.48" stroke="rgba(55, 55, 55, 1)" stroke-width="1.5"></path><path d="M-67.73 819.1L-67.73 819.1" stroke="rgba(55, 55, 55, 1)" stroke-width="1.5"></path><path d="M-67.73 819.1L73.64 798.41" stroke="rgba(55, 55, 55, 1)" stroke-width="1.5"></path><path d="M-67.73 819.1L-110.39 975.48" stroke="rgba(55, 55, 55, 1)" stroke-width="1.5"></path><path d="M-110.39 975.48L-110.39 975.48" stroke="rgba(55, 55, 55, 1)" stroke-width="1.5"></path><path d="M-110.39 975.48L106.14 996.64" stroke="rgba(55, 55, 55, 1)" stroke-width="1.5"></path><path d="M-110.39 975.48L73.64 798.41" stroke="rgba(55, 55, 55, 1)" stroke-width="1.5"></path><path d="M-110.39 975.48L238.1 1009.56" stroke="rgba(55, 55, 55, 1)" stroke-width="1.5"></path><path d="M109.08 662.21L109.08 662.21" stroke="rgba(55, 55, 55, 1)" stroke-width="1.5"></path><path d="M109.08 662.21L241.09 665.66" stroke="rgba(55, 55, 55, 1)" stroke-width="1.5"></path><path d="M109.08 662.21L73.64 798.41" stroke="rgba(55, 55, 55, 1)" stroke-width="1.5"></path><path d="M109.08 662.21L232.73 541.3" stroke="rgba(55, 55, 55, 1)" stroke-width="1.5"></path><path d="M73.64 798.41L73.64 798.41" stroke="rgba(55, 55, 55, 1)" stroke-width="1.5"></path><path d="M106.14 996.64L106.14 996.64" stroke="rgba(55, 55, 55, 1)" stroke-width="1.5"></path><path d="M106.14 996.64L238.1 1009.56" stroke="rgba(55, 55, 55, 1)" stroke-width="1.5"></path><path d="M106.14 996.64L246.54 861.69" stroke="rgba(55, 55, 55, 1)" stroke-width="1.5"></path><path d="M106.14 996.64L73.64 798.41" stroke="rgba(55, 55, 55, 1)" stroke-width="1.5"></path><path d="M232.73 541.3L232.73 541.3" stroke="rgba(55, 55, 55, 1)" stroke-width="1.5"></path><path d="M232.73 541.3L241.09 665.66" stroke="rgba(55, 55, 55, 1)" stroke-width="1.5"></path><path d="M232.73 541.3L372.27 526.13" stroke="rgba(55, 55, 55, 1)" stroke-width="1.5"></path><path d="M241.09 665.66L241.09 665.66" stroke="rgba(55, 55, 55, 1)" stroke-width="1.5"></path><path d="M241.09 665.66L412.45 648.92" stroke="rgba(55, 55, 55, 1)" stroke-width="1.5"></path><path d="M241.09 665.66L372.27 526.13" stroke="rgba(55, 55, 55, 1)" stroke-width="1.5"></path><path d="M246.54 861.69L246.54 861.69" stroke="rgba(55, 55, 55, 1)" stroke-width="1.5"></path><path d="M246.54 861.69L238.1 1009.56" stroke="rgba(55, 55, 55, 1)" stroke-width="1.5"></path><path d="M238.1 1009.56L238.1 1009.56" stroke="rgba(55, 55, 55, 1)" stroke-width="1.5"></path><path d="M238.1 1009.56L359.9 975.79" stroke="rgba(55, 55, 55, 1)" stroke-width="1.5"></path><path d="M372.27 526.13L372.27 526.13" stroke="rgba(55, 55, 55, 1)" stroke-width="1.5"></path><path d="M372.27 526.13L412.45 648.92" stroke="rgba(55, 55, 55, 1)" stroke-width="1.5"></path><path d="M412.45 648.92L412.45 648.92" stroke="rgba(55, 55, 55, 1)" stroke-width="1.5"></path><path d="M412.45 648.92L502.21 663.1" stroke="rgba(55, 55, 55, 1)" stroke-width="1.5"></path><path d="M412.45 648.92L524.21 554.44" stroke="rgba(55, 55, 55, 1)" stroke-width="1.5"></path><path d="M402.92 803.48L402.92 803.48" stroke="rgba(55, 55, 55, 1)" stroke-width="1.5"></path><path d="M402.92 803.48L520.69 822.71" stroke="rgba(55, 55, 55, 1)" stroke-width="1.5"></path><path d="M402.92 803.48L412.45 648.92" stroke="rgba(55, 55, 55, 1)" stroke-width="1.5"></path><path d="M402.92 803.48L246.54 861.69" stroke="rgba(55, 55, 55, 1)" stroke-width="1.5"></path><path d="M359.9 975.79L359.9 975.79" stroke="rgba(55, 55, 55, 1)" stroke-width="1.5"></path><path d="M359.9 975.79L500.4 962.53" stroke="rgba(55, 55, 55, 1)" stroke-width="1.5"></path><path d="M359.9 975.79L246.54 861.69" stroke="rgba(55, 55, 55, 1)" stroke-width="1.5"></path><path d="M359.9 975.79L402.92 803.48" stroke="rgba(55, 55, 55, 1)" stroke-width="1.5"></path><path d="M524.21 554.44L524.21 554.44" stroke="rgba(55, 55, 55, 1)" stroke-width="1.5"></path><path d="M524.21 554.44L502.21 663.1" stroke="rgba(55, 55, 55, 1)" stroke-width="1.5"></path><path d="M524.21 554.44L372.27 526.13" stroke="rgba(55, 55, 55, 1)" stroke-width="1.5"></path><path d="M502.21 663.1L502.21 663.1" stroke="rgba(55, 55, 55, 1)" stroke-width="1.5"></path><path d="M502.21 663.1L638.26 699.9" stroke="rgba(55, 55, 55, 1)" stroke-width="1.5"></path><path d="M502.21 663.1L520.69 822.71" stroke="rgba(55, 55, 55, 1)" stroke-width="1.5"></path><path d="M520.69 822.71L520.69 822.71" stroke="rgba(55, 55, 55, 1)" stroke-width="1.5"></path><path d="M520.69 822.71L500.4 962.53" stroke="rgba(55, 55, 55, 1)" stroke-width="1.5"></path><path d="M520.69 822.71L638.26 699.9" stroke="rgba(55, 55, 55, 1)" stroke-width="1.5"></path><path d="M520.69 822.71L412.45 648.92" stroke="rgba(55, 55, 55, 1)" stroke-width="1.5"></path><path d="M500.4 962.53L500.4 962.53" stroke="rgba(55, 55, 55, 1)" stroke-width="1.5"></path><path d="M658.49 387.19L658.49 387.19" stroke="rgba(55, 55, 55, 1)" stroke-width="1.5"></path><path d="M658.49 387.19L693.48 494.56" stroke="rgba(55, 55, 55, 1)" stroke-width="1.5"></path><path d="M658.49 387.19L789.67 545.49" stroke="rgba(55, 55, 55, 1)" stroke-width="1.5"></path><path d="M658.49 387.19L524.21 554.44" stroke="rgba(55, 55, 55, 1)" stroke-width="1.5"></path><path d="M693.48 494.56L693.48 494.56" stroke="rgba(55, 55, 55, 1)" stroke-width="1.5"></path><path d="M693.48 494.56L789.67 545.49" stroke="rgba(55, 55, 55, 1)" stroke-width="1.5"></path><path d="M638.26 699.9L638.26 699.9" stroke="rgba(55, 55, 55, 1)" stroke-width="1.5"></path><path d="M667.96 996.56L667.96 996.56" stroke="rgba(55, 55, 55, 1)" stroke-width="1.5"></path><path d="M667.96 996.56L798.06 979.56" stroke="rgba(55, 55, 55, 1)" stroke-width="1.5"></path><path d="M667.96 996.56L500.4 962.53" stroke="rgba(55, 55, 55, 1)" stroke-width="1.5"></path><path d="M667.96 996.56L824.88 847.92" stroke="rgba(55, 55, 55, 1)" stroke-width="1.5"></path><path d="M667.96 996.56L520.69 822.71" stroke="rgba(55, 55, 55, 1)" stroke-width="1.5"></path><path d="M667.96 996.56L945.99 963.28" stroke="rgba(55, 55, 55, 1)" stroke-width="1.5"></path><path d="M667.96 996.56L638.26 699.9" stroke="rgba(55, 55, 55, 1)" stroke-width="1.5"></path><path d="M843.61 260.98L843.61 260.98" stroke="rgba(55, 55, 55, 1)" stroke-width="1.5"></path><path d="M843.61 260.98L998.06 373.68" stroke="rgba(55, 55, 55, 1)" stroke-width="1.5"></path><path d="M843.61 260.98L970 105.5" stroke="rgba(55, 55, 55, 1)" stroke-width="1.5"></path><path d="M843.61 260.98L658.49 387.19" stroke="rgba(55, 55, 55, 1)" stroke-width="1.5"></path><path d="M843.61 260.98L693.48 494.56" stroke="rgba(55, 55, 55, 1)" stroke-width="1.5"></path><path d="M843.61 260.98L1117.48 194.33" stroke="rgba(55, 55, 55, 1)" stroke-width="1.5"></path><path d="M843.61 260.98L789.67 545.49" stroke="rgba(55, 55, 55, 1)" stroke-width="1.5"></path><path d="M789.67 545.49L789.67 545.49" stroke="rgba(55, 55, 55, 1)" stroke-width="1.5"></path><path d="M789.67 545.49L832.15 662.22" stroke="rgba(55, 55, 55, 1)" stroke-width="1.5"></path><path d="M789.67 545.49L988.77 543.69" stroke="rgba(55, 55, 55, 1)" stroke-width="1.5"></path><path d="M832.15 662.22L832.15 662.22" stroke="rgba(55, 55, 55, 1)" stroke-width="1.5"></path><path d="M832.15 662.22L989.72 676.7" stroke="rgba(55, 55, 55, 1)" stroke-width="1.5"></path><path d="M832.15 662.22L824.88 847.92" stroke="rgba(55, 55, 55, 1)" stroke-width="1.5"></path><path d="M832.15 662.22L988.77 543.69" stroke="rgba(55, 55, 55, 1)" stroke-width="1.5"></path><path d="M824.88 847.92L824.88 847.92" stroke="rgba(55, 55, 55, 1)" stroke-width="1.5"></path><path d="M824.88 847.92L945.5 837.28" stroke="rgba(55, 55, 55, 1)" stroke-width="1.5"></path><path d="M824.88 847.92L798.06 979.56" stroke="rgba(55, 55, 55, 1)" stroke-width="1.5"></path><path d="M824.88 847.92L945.99 963.28" stroke="rgba(55, 55, 55, 1)" stroke-width="1.5"></path><path d="M798.06 979.56L798.06 979.56" stroke="rgba(55, 55, 55, 1)" stroke-width="1.5"></path><path d="M798.06 979.56L945.99 963.28" stroke="rgba(55, 55, 55, 1)" stroke-width="1.5"></path><path d="M940 -101.6L940 -101.6" stroke="rgba(55, 55, 55, 1)" stroke-width="1.5"></path><path d="M940 -101.6L1136.63 -47.54" stroke="rgba(55, 55, 55, 1)" stroke-width="1.5"></path><path d="M940 -101.6L970 105.5" stroke="rgba(55, 55, 55, 1)" stroke-width="1.5"></path><path d="M940 -101.6L1104.74 37.84" stroke="rgba(55, 55, 55, 1)" stroke-width="1.5"></path><path d="M940 -101.6L1117.48 194.33" stroke="rgba(55, 55, 55, 1)" stroke-width="1.5"></path><path d="M940 -101.6L1265.82 62.11" stroke="rgba(55, 55, 55, 1)" stroke-width="1.5"></path><path d="M940 -101.6L843.61 260.98" stroke="rgba(55, 55, 55, 1)" stroke-width="1.5"></path><path d="M970 105.5L970 105.5" stroke="rgba(55, 55, 55, 1)" stroke-width="1.5"></path><path d="M970 105.5L1104.74 37.84" stroke="rgba(55, 55, 55, 1)" stroke-width="1.5"></path><path d="M970 105.5L1117.48 194.33" stroke="rgba(55, 55, 55, 1)" stroke-width="1.5"></path><path d="M970 105.5L1136.63 -47.54" stroke="rgba(55, 55, 55, 1)" stroke-width="1.5"></path><path d="M970 105.5L998.06 373.68" stroke="rgba(55, 55, 55, 1)" stroke-width="1.5"></path><path d="M998.06 373.68L998.06 373.68" stroke="rgba(55, 55, 55, 1)" stroke-width="1.5"></path><path d="M998.06 373.68L1102.72 390.95" stroke="rgba(55, 55, 55, 1)" stroke-width="1.5"></path><path d="M998.06 373.68L988.77 543.69" stroke="rgba(55, 55, 55, 1)" stroke-width="1.5"></path><path d="M998.06 373.68L1114.65 549.78" stroke="rgba(55, 55, 55, 1)" stroke-width="1.5"></path><path d="M998.06 373.68L1117.48 194.33" stroke="rgba(55, 55, 55, 1)" stroke-width="1.5"></path><path d="M988.77 543.69L988.77 543.69" stroke="rgba(55, 55, 55, 1)" stroke-width="1.5"></path><path d="M988.77 543.69L1114.65 549.78" stroke="rgba(55, 55, 55, 1)" stroke-width="1.5"></path><path d="M988.77 543.69L989.72 676.7" stroke="rgba(55, 55, 55, 1)" stroke-width="1.5"></path><path d="M988.77 543.69L1102.72 390.95" stroke="rgba(55, 55, 55, 1)" stroke-width="1.5"></path><path d="M989.72 676.7L989.72 676.7" stroke="rgba(55, 55, 55, 1)" stroke-width="1.5"></path><path d="M989.72 676.7L1116.8 708.53" stroke="rgba(55, 55, 55, 1)" stroke-width="1.5"></path><path d="M945.5 837.28L945.5 837.28" stroke="rgba(55, 55, 55, 1)" stroke-width="1.5"></path><path d="M945.5 837.28L945.99 963.28" stroke="rgba(55, 55, 55, 1)" stroke-width="1.5"></path><path d="M945.99 963.28L945.99 963.28" stroke="rgba(55, 55, 55, 1)" stroke-width="1.5"></path><path d="M1136.63 -47.54L1136.63 -47.54" stroke="rgba(55, 55, 55, 1)" stroke-width="1.5"></path><path d="M1136.63 -47.54L1104.74 37.84" stroke="rgba(55, 55, 55, 1)" stroke-width="1.5"></path><path d="M1136.63 -47.54L1265.82 62.11" stroke="rgba(55, 55, 55, 1)" stroke-width="1.5"></path><path d="M1104.74 37.84L1104.74 37.84" stroke="rgba(55, 55, 55, 1)" stroke-width="1.5"></path><path d="M1117.48 194.33L1117.48 194.33" stroke="rgba(55, 55, 55, 1)" stroke-width="1.5"></path><path d="M1117.48 194.33L1104.74 37.84" stroke="rgba(55, 55, 55, 1)" stroke-width="1.5"></path><path d="M1117.48 194.33L1281.75 245.06" stroke="rgba(55, 55, 55, 1)" stroke-width="1.5"></path><path d="M1117.48 194.33L1102.72 390.95" stroke="rgba(55, 55, 55, 1)" stroke-width="1.5"></path><path d="M1102.72 390.95L1102.72 390.95" stroke="rgba(55, 55, 55, 1)" stroke-width="1.5"></path><path d="M1102.72 390.95L1114.65 549.78" stroke="rgba(55, 55, 55, 1)" stroke-width="1.5"></path><path d="M1114.65 549.78L1114.65 549.78" stroke="rgba(55, 55, 55, 1)" stroke-width="1.5"></path><path d="M1114.65 549.78L1245.28 562.49" stroke="rgba(55, 55, 55, 1)" stroke-width="1.5"></path><path d="M1114.65 549.78L1116.8 708.53" stroke="rgba(55, 55, 55, 1)" stroke-width="1.5"></path><path d="M1114.65 549.78L989.72 676.7" stroke="rgba(55, 55, 55, 1)" stroke-width="1.5"></path><path d="M1114.65 549.78L1259.25 702.63" stroke="rgba(55, 55, 55, 1)" stroke-width="1.5"></path><path d="M1116.8 708.53L1116.8 708.53" stroke="rgba(55, 55, 55, 1)" stroke-width="1.5"></path><path d="M1116.8 708.53L1112.21 791.7" stroke="rgba(55, 55, 55, 1)" stroke-width="1.5"></path><path d="M1116.8 708.53L1259.25 702.63" stroke="rgba(55, 55, 55, 1)" stroke-width="1.5"></path><path d="M1112.21 791.7L1112.21 791.7" stroke="rgba(55, 55, 55, 1)" stroke-width="1.5"></path><path d="M1112.21 791.7L989.72 676.7" stroke="rgba(55, 55, 55, 1)" stroke-width="1.5"></path><path d="M1112.21 791.7L1259.25 702.63" stroke="rgba(55, 55, 55, 1)" stroke-width="1.5"></path><path d="M1112.21 791.7L945.5 837.28" stroke="rgba(55, 55, 55, 1)" stroke-width="1.5"></path><path d="M1132.1 1006.02L1132.1 1006.02" stroke="rgba(55, 55, 55, 1)" stroke-width="1.5"></path><path d="M1132.1 1006.02L1238.33 990.31" stroke="rgba(55, 55, 55, 1)" stroke-width="1.5"></path><path d="M1132.1 1006.02L945.99 963.28" stroke="rgba(55, 55, 55, 1)" stroke-width="1.5"></path><path d="M1132.1 1006.02L1112.21 791.7" stroke="rgba(55, 55, 55, 1)" stroke-width="1.5"></path><path d="M1132.1 1006.02L945.5 837.28" stroke="rgba(55, 55, 55, 1)" stroke-width="1.5"></path><path d="M1265.82 62.11L1265.82 62.11" stroke="rgba(55, 55, 55, 1)" stroke-width="1.5"></path><path d="M1265.82 62.11L1424.25 95.64" stroke="rgba(55, 55, 55, 1)" stroke-width="1.5"></path><path d="M1265.82 62.11L1388.39 -43.84" stroke="rgba(55, 55, 55, 1)" stroke-width="1.5"></path><path d="M1281.75 245.06L1281.75 245.06" stroke="rgba(55, 55, 55, 1)" stroke-width="1.5"></path><path d="M1281.75 245.06L1411.03 211.75" stroke="rgba(55, 55, 55, 1)" stroke-width="1.5"></path><path d="M1281.75 245.06L1390.85 358.57" stroke="rgba(55, 55, 55, 1)" stroke-width="1.5"></path><path d="M1281.75 245.06L1297 404.52" stroke="rgba(55, 55, 55, 1)" stroke-width="1.5"></path><path d="M1281.75 245.06L1265.82 62.11" stroke="rgba(55, 55, 55, 1)" stroke-width="1.5"></path><path d="M1281.75 245.06L1424.25 95.64" stroke="rgba(55, 55, 55, 1)" stroke-width="1.5"></path><path d="M1297 404.52L1297 404.52" stroke="rgba(55, 55, 55, 1)" stroke-width="1.5"></path><path d="M1297 404.52L1390.85 358.57" stroke="rgba(55, 55, 55, 1)" stroke-width="1.5"></path><path d="M1297 404.52L1245.28 562.49" stroke="rgba(55, 55, 55, 1)" stroke-width="1.5"></path><path d="M1245.28 562.49L1245.28 562.49" stroke="rgba(55, 55, 55, 1)" stroke-width="1.5"></path><path d="M1259.25 702.63L1259.25 702.63" stroke="rgba(55, 55, 55, 1)" stroke-width="1.5"></path><path d="M1259.25 702.63L1309.53 794.78" stroke="rgba(55, 55, 55, 1)" stroke-width="1.5"></path><path d="M1259.25 702.63L1245.28 562.49" stroke="rgba(55, 55, 55, 1)" stroke-width="1.5"></path><path d="M1309.53 794.78L1309.53 794.78" stroke="rgba(55, 55, 55, 1)" stroke-width="1.5"></path><path d="M1309.53 794.78L1420.73 829.13" stroke="rgba(55, 55, 55, 1)" stroke-width="1.5"></path><path d="M1238.33 990.31L1238.33 990.31" stroke="rgba(55, 55, 55, 1)" stroke-width="1.5"></path><path d="M1238.33 990.31L1309.53 794.78" stroke="rgba(55, 55, 55, 1)" stroke-width="1.5"></path><path d="M1238.33 990.31L1112.21 791.7" stroke="rgba(55, 55, 55, 1)" stroke-width="1.5"></path><path d="M1238.33 990.31L1420.73 829.13" stroke="rgba(55, 55, 55, 1)" stroke-width="1.5"></path><path d="M1238.33 990.31L1259.25 702.63" stroke="rgba(55, 55, 55, 1)" stroke-width="1.5"></path><path d="M1388.39 -43.84L1388.39 -43.84" stroke="rgba(55, 55, 55, 1)" stroke-width="1.5"></path><path d="M1388.39 -43.84L1424.25 95.64" stroke="rgba(55, 55, 55, 1)" stroke-width="1.5"></path><path d="M1388.39 -43.84L1546.9 -50.62" stroke="rgba(55, 55, 55, 1)" stroke-width="1.5"></path><path d="M1388.39 -43.84L1569.4 105.17" stroke="rgba(55, 55, 55, 1)" stroke-width="1.5"></path><path d="M1388.39 -43.84L1136.63 -47.54" stroke="rgba(55, 55, 55, 1)" stroke-width="1.5"></path><path d="M1424.25 95.64L1424.25 95.64" stroke="rgba(55, 55, 55, 1)" stroke-width="1.5"></path><path d="M1424.25 95.64L1411.03 211.75" stroke="rgba(55, 55, 55, 1)" stroke-width="1.5"></path><path d="M1411.03 211.75L1411.03 211.75" stroke="rgba(55, 55, 55, 1)" stroke-width="1.5"></path><path d="M1411.03 211.75L1390.85 358.57" stroke="rgba(55, 55, 55, 1)" stroke-width="1.5"></path><path d="M1411.03 211.75L1569.4 105.17" stroke="rgba(55, 55, 55, 1)" stroke-width="1.5"></path><path d="M1390.85 358.57L1390.85 358.57" stroke="rgba(55, 55, 55, 1)" stroke-width="1.5"></path><path d="M1429.8 539.66L1429.8 539.66" stroke="rgba(55, 55, 55, 1)" stroke-width="1.5"></path><path d="M1429.8 539.66L1545.3 497.39" stroke="rgba(55, 55, 55, 1)" stroke-width="1.5"></path><path d="M1429.8 539.66L1559.4 666.54" stroke="rgba(55, 55, 55, 1)" stroke-width="1.5"></path><path d="M1429.8 539.66L1390.85 358.57" stroke="rgba(55, 55, 55, 1)" stroke-width="1.5"></path><path d="M1429.8 539.66L1245.28 562.49" stroke="rgba(55, 55, 55, 1)" stroke-width="1.5"></path><path d="M1429.8 539.66L1297 404.52" stroke="rgba(55, 55, 55, 1)" stroke-width="1.5"></path><path d="M1420.73 829.13L1420.73 829.13" stroke="rgba(55, 55, 55, 1)" stroke-width="1.5"></path><path d="M1420.73 829.13L1609.93 842.53" stroke="rgba(55, 55, 55, 1)" stroke-width="1.5"></path><path d="M1420.73 829.13L1259.25 702.63" stroke="rgba(55, 55, 55, 1)" stroke-width="1.5"></path><path d="M1420.73 829.13L1559.4 666.54" stroke="rgba(55, 55, 55, 1)" stroke-width="1.5"></path><path d="M1420.73 829.13L1429.8 539.66" stroke="rgba(55, 55, 55, 1)" stroke-width="1.5"></path><path d="M1546.9 -50.62L1546.9 -50.62" stroke="rgba(55, 55, 55, 1)" stroke-width="1.5"></path><path d="M1546.9 -50.62L1569.4 105.17" stroke="rgba(55, 55, 55, 1)" stroke-width="1.5"></path><path d="M1546.9 -50.62L1424.25 95.64" stroke="rgba(55, 55, 55, 1)" stroke-width="1.5"></path><path d="M1546.9 -50.62L1411.03 211.75" stroke="rgba(55, 55, 55, 1)" stroke-width="1.5"></path><path d="M1546.9 -50.62L1600.5 246.66" stroke="rgba(55, 55, 55, 1)" stroke-width="1.5"></path><path d="M1569.4 105.17L1569.4 105.17" stroke="rgba(55, 55, 55, 1)" stroke-width="1.5"></path><path d="M1569.4 105.17L1600.5 246.66" stroke="rgba(55, 55, 55, 1)" stroke-width="1.5"></path><path d="M1569.4 105.17L1424.25 95.64" stroke="rgba(55, 55, 55, 1)" stroke-width="1.5"></path><path d="M1600.5 246.66L1600.5 246.66" stroke="rgba(55, 55, 55, 1)" stroke-width="1.5"></path><path d="M1600.5 246.66L1584.01 362.06" stroke="rgba(55, 55, 55, 1)" stroke-width="1.5"></path><path d="M1600.5 246.66L1411.03 211.75" stroke="rgba(55, 55, 55, 1)" stroke-width="1.5"></path><path d="M1600.5 246.66L1424.25 95.64" stroke="rgba(55, 55, 55, 1)" stroke-width="1.5"></path><path d="M1584.01 362.06L1584.01 362.06" stroke="rgba(55, 55, 55, 1)" stroke-width="1.5"></path><path d="M1584.01 362.06L1545.3 497.39" stroke="rgba(55, 55, 55, 1)" stroke-width="1.5"></path><path d="M1584.01 362.06L1390.85 358.57" stroke="rgba(55, 55, 55, 1)" stroke-width="1.5"></path><path d="M1584.01 362.06L1411.03 211.75" stroke="rgba(55, 55, 55, 1)" stroke-width="1.5"></path><path d="M1584.01 362.06L1429.8 539.66" stroke="rgba(55, 55, 55, 1)" stroke-width="1.5"></path><path d="M1545.3 497.39L1545.3 497.39" stroke="rgba(55, 55, 55, 1)" stroke-width="1.5"></path><path d="M1545.3 497.39L1559.4 666.54" stroke="rgba(55, 55, 55, 1)" stroke-width="1.5"></path><path d="M1559.4 666.54L1559.4 666.54" stroke="rgba(55, 55, 55, 1)" stroke-width="1.5"></path><path d="M1559.4 666.54L1609.93 842.53" stroke="rgba(55, 55, 55, 1)" stroke-width="1.5"></path><path d="M1559.4 666.54L1309.53 794.78" stroke="rgba(55, 55, 55, 1)" stroke-width="1.5"></path><path d="M1559.4 666.54L1259.25 702.63" stroke="rgba(55, 55, 55, 1)" stroke-width="1.5"></path><path d="M1609.93 842.53L1609.93 842.53" stroke="rgba(55, 55, 55, 1)" stroke-width="1.5"></path><path d="M1609.93 842.53L1309.53 794.78" stroke="rgba(55, 55, 55, 1)" stroke-width="1.5"></path><path d="M1609.93 842.53L1545.3 497.39" stroke="rgba(55, 55, 55, 1)" stroke-width="1.5"></path><circle r="5" cx="-85.85" cy="557.66" fill="rgba(55, 55, 55, 1)"></circle><circle r="5" cx="-43.32" cy="711.99" fill="rgba(55, 55, 55, 1)"></circle><circle r="5" cx="-67.73" cy="819.1" fill="rgba(55, 55, 55, 1)"></circle><circle r="5" cx="-110.39" cy="975.48" fill="rgba(55, 55, 55, 1)"></circle><circle r="5" cx="109.08" cy="662.21" fill="rgba(55, 55, 55, 1)"></circle><circle r="5" cx="73.64" cy="798.41" fill="rgba(55, 55, 55, 1)"></circle><circle r="5" cx="106.14" cy="996.64" fill="rgba(55, 55, 55, 1)"></circle><circle r="5" cx="232.73" cy="541.3" fill="rgba(55, 55, 55, 1)"></circle><circle r="5" cx="241.09" cy="665.66" fill="rgba(55, 55, 55, 1)"></circle><circle r="5" cx="246.54" cy="861.69" fill="rgba(55, 55, 55, 1)"></circle><circle r="5" cx="238.1" cy="1009.56" fill="rgba(55, 55, 55, 1)"></circle><circle r="5" cx="372.27" cy="526.13" fill="rgba(55, 55, 55, 1)"></circle><circle r="5" cx="412.45" cy="648.92" fill="rgba(55, 55, 55, 1)"></circle><circle r="5" cx="402.92" cy="803.48" fill="rgba(55, 55, 55, 1)"></circle><circle r="5" cx="359.9" cy="975.79" fill="rgba(55, 55, 55, 1)"></circle><circle r="5" cx="524.21" cy="554.44" fill="rgba(55, 55, 55, 1)"></circle><circle r="5" cx="502.21" cy="663.1" fill="rgba(55, 55, 55, 1)"></circle><circle r="5" cx="520.69" cy="822.71" fill="rgba(55, 55, 55, 1)"></circle><circle r="5" cx="500.4" cy="962.53" fill="rgba(55, 55, 55, 1)"></circle><circle r="5" cx="658.49" cy="387.19" fill="rgba(55, 55, 55, 1)"></circle><circle r="5" cx="693.48" cy="494.56" fill="rgba(55, 55, 55, 1)"></circle><circle r="5" cx="638.26" cy="699.9" fill="rgba(55, 55, 55, 1)"></circle><circle r="5" cx="667.96" cy="996.56" fill="rgba(55, 55, 55, 1)"></circle><circle r="5" cx="843.61" cy="260.98" fill="rgba(55, 55, 55, 1)"></circle><circle r="5" cx="789.67" cy="545.49" fill="rgba(55, 55, 55, 1)"></circle><circle r="5" cx="832.15" cy="662.22" fill="rgba(55, 55, 55, 1)"></circle><circle r="5" cx="824.88" cy="847.92" fill="rgba(55, 55, 55, 1)"></circle><circle r="5" cx="798.06" cy="979.56" fill="rgba(55, 55, 55, 1)"></circle><circle r="5" cx="940" cy="-101.6" fill="rgba(55, 55, 55, 1)"></circle><circle r="5" cx="970" cy="105.5" fill="rgba(55, 55, 55, 1)"></circle><circle r="5" cx="998.06" cy="373.68" fill="rgba(55, 55, 55, 1)"></circle><circle r="5" cx="988.77" cy="543.69" fill="rgba(55, 55, 55, 1)"></circle><circle r="5" cx="989.72" cy="676.7" fill="rgba(55, 55, 55, 1)"></circle><circle r="5" cx="945.5" cy="837.28" fill="rgba(55, 55, 55, 1)"></circle><circle r="5" cx="945.99" cy="963.28" fill="rgba(55, 55, 55, 1)"></circle><circle r="5" cx="1136.63" cy="-47.54" fill="rgba(55, 55, 55, 1)"></circle><circle r="5" cx="1104.74" cy="37.84" fill="rgba(55, 55, 55, 1)"></circle><circle r="5" cx="1117.48" cy="194.33" fill="rgba(55, 55, 55, 1)"></circle><circle r="5" cx="1102.72" cy="390.95" fill="rgba(55, 55, 55, 1)"></circle><circle r="5" cx="1114.65" cy="549.78" fill="rgba(55, 55, 55, 1)"></circle><circle r="5" cx="1116.8" cy="708.53" fill="rgba(55, 55, 55, 1)"></circle><circle r="5" cx="1112.21" cy="791.7" fill="rgba(55, 55, 55, 1)"></circle><circle r="5" cx="1132.1" cy="1006.02" fill="rgba(55, 55, 55, 1)"></circle><circle r="5" cx="1265.82" cy="62.11" fill="rgba(55, 55, 55, 1)"></circle><circle r="5" cx="1281.75" cy="245.06" fill="rgba(55, 55, 55, 1)"></circle><circle r="5" cx="1297" cy="404.52" fill="rgba(55, 55, 55, 1)"></circle><circle r="5" cx="1245.28" cy="562.49" fill="rgba(55, 55, 55, 1)"></circle><circle r="5" cx="1259.25" cy="702.63" fill="rgba(55, 55, 55, 1)"></circle><circle r="5" cx="1309.53" cy="794.78" fill="rgba(55, 55, 55, 1)"></circle><circle r="5" cx="1238.33" cy="990.31" fill="rgba(55, 55, 55, 1)"></circle><circle r="5" cx="1388.39" cy="-43.84" fill="rgba(55, 55, 55, 1)"></circle><circle r="5" cx="1424.25" cy="95.64" fill="rgba(55, 55, 55, 1)"></circle><circle r="5" cx="1411.03" cy="211.75" fill="rgba(55, 55, 55, 1)"></circle><circle r="5" cx="1390.85" cy="358.57" fill="rgba(55, 55, 55, 1)"></circle><circle r="5" cx="1429.8" cy="539.66" fill="rgba(55, 55, 55, 1)"></circle><circle r="5" cx="1420.73" cy="829.13" fill="rgba(55, 55, 55, 1)"></circle><circle r="5" cx="1546.9" cy="-50.62" fill="rgba(55, 55, 55, 1)"></circle><circle r="5" cx="1569.4" cy="105.17" fill="rgba(55, 55, 55, 1)"></circle><circle r="5" cx="1600.5" cy="246.66" fill="rgba(55, 55, 55, 1)"></circle><circle r="5" cx="1584.01" cy="362.06" fill="rgba(55, 55, 55, 1)"></circle><circle r="5" cx="1545.3" cy="497.39" fill="rgba(55, 55, 55, 1)"></circle><circle r="5" cx="1559.4" cy="666.54" fill="rgba(55, 55, 55, 1)"></circle><circle r="5" cx="1609.93" cy="842.53" fill="rgba(55, 55, 55, 1)"></circle><path d="M254.46 789.94L254.46 789.94" stroke="hsl(0, 0.4%, 61.4%)" stroke-width="1.5"></path><path d="M254.46 789.94L357.88 709.16" stroke="hsl(0, 0.4%, 61.4%)" stroke-width="1.5"></path><path d="M342.93 951.18L342.93 951.18" stroke="hsl(0, 0.4%, 61.4%)" stroke-width="1.5"></path><path d="M342.93 951.18L193.64 940.31" stroke="hsl(0, 0.4%, 61.4%)" stroke-width="1.5"></path><path d="M512.69 813.61L512.69 813.61" stroke="hsl(0, 0.4%, 61.4%)" stroke-width="1.5"></path><path d="M512.69 813.61L409.11 815.56" stroke="hsl(0, 0.4%, 61.4%)" stroke-width="1.5"></path><path d="M512.69 813.61L558.79 697.05" stroke="hsl(0, 0.4%, 61.4%)" stroke-width="1.5"></path><path d="M512.69 813.61L673.26 812.34" stroke="hsl(0, 0.4%, 61.4%)" stroke-width="1.5"></path><path d="M512.69 813.61L357.88 709.16" stroke="hsl(0, 0.4%, 61.4%)" stroke-width="1.5"></path><path d="M845.86 516.79L845.86 516.79" stroke="hsl(0, 0.4%, 61.4%)" stroke-width="1.5"></path><path d="M845.86 516.79L982.53 496.08" stroke="hsl(0, 0.4%, 61.4%)" stroke-width="1.5"></path><path d="M845.86 516.79L961.7 662.03" stroke="hsl(0, 0.4%, 61.4%)" stroke-width="1.5"></path><path d="M1114.64 698.17L1114.64 698.17" stroke="hsl(0, 0.4%, 61.4%)" stroke-width="1.5"></path><path d="M1114.64 698.17L961.7 662.03" stroke="hsl(0, 0.4%, 61.4%)" stroke-width="1.5"></path><path d="M1114.64 698.17L998.05 809.28" stroke="hsl(0, 0.4%, 61.4%)" stroke-width="1.5"></path><path d="M1114.64 698.17L1097.06 860.36" stroke="hsl(0, 0.4%, 61.4%)" stroke-width="1.5"></path><path d="M1114.64 698.17L1113.95 525.55" stroke="hsl(0, 0.4%, 61.4%)" stroke-width="1.5"></path><path d="M1097.06 860.36L1097.06 860.36" stroke="hsl(0, 0.4%, 61.4%)" stroke-width="1.5"></path><path d="M1097.06 860.36L998.05 809.28" stroke="hsl(0, 0.4%, 61.4%)" stroke-width="1.5"></path><path d="M1097.06 860.36L1104.27 1007.2" stroke="hsl(0, 0.4%, 61.4%)" stroke-width="1.5"></path><path d="M1419.76 376.68L1419.76 376.68" stroke="hsl(0, 0.4%, 61.4%)" stroke-width="1.5"></path><path d="M1419.76 376.68L1431.37 497.93" stroke="hsl(0, 0.4%, 61.4%)" stroke-width="1.5"></path><path d="M1453.75 684.01L1453.75 684.01" stroke="hsl(0, 0.4%, 61.4%)" stroke-width="1.5"></path><path d="M1453.75 684.01L1447.16 799.42" stroke="hsl(0, 0.4%, 61.4%)" stroke-width="1.5"></path><path d="M1453.75 684.01L1568.13 659.52" stroke="hsl(0, 0.4%, 61.4%)" stroke-width="1.5"></path><path d="M1453.75 684.01L1308.46 649.75" stroke="hsl(0, 0.4%, 61.4%)" stroke-width="1.5"></path><path d="M1568.13 659.52L1568.13 659.52" stroke="hsl(0, 0.4%, 61.4%)" stroke-width="1.5"></path><path d="M1568.13 659.52L1559 492.84" stroke="hsl(0, 0.4%, 61.4%)" stroke-width="1.5"></path><path d="M-108.6 808.93L-108.6 808.93" stroke="hsl(0, 0.4%, 61.4%)" stroke-width="1.5"></path><path d="M-108.6 808.93L81.52 817.13" stroke="hsl(0, 0.4%, 61.4%)" stroke-width="1.5"></path><path d="M-108.6 808.93L-55.63 997.75" stroke="hsl(0, 0.4%, 61.4%)" stroke-width="1.5"></path><path d="M-108.6 808.93L112.11 987.61" stroke="hsl(0, 0.4%, 61.4%)" stroke-width="1.5"></path><path d="M-55.63 997.75L-55.63 997.75" stroke="hsl(0, 0.4%, 61.4%)" stroke-width="1.5"></path><path d="M-55.63 997.75L112.11 987.61" stroke="hsl(0, 0.4%, 61.4%)" stroke-width="1.5"></path><path d="M-55.63 997.75L81.52 817.13" stroke="hsl(0, 0.4%, 61.4%)" stroke-width="1.5"></path><path d="M-55.63 997.75L193.64 940.31" stroke="hsl(0, 0.4%, 61.4%)" stroke-width="1.5"></path><path d="M81.52 817.13L81.52 817.13" stroke="hsl(0, 0.4%, 61.4%)" stroke-width="1.5"></path><path d="M81.52 817.13L193.64 940.31" stroke="hsl(0, 0.4%, 61.4%)" stroke-width="1.5"></path><path d="M81.52 817.13L112.11 987.61" stroke="hsl(0, 0.4%, 61.4%)" stroke-width="1.5"></path><path d="M81.52 817.13L254.46 789.94" stroke="hsl(0, 0.4%, 61.4%)" stroke-width="1.5"></path><path d="M112.11 987.61L112.11 987.61" stroke="hsl(0, 0.4%, 61.4%)" stroke-width="1.5"></path><path d="M112.11 987.61L193.64 940.31" stroke="hsl(0, 0.4%, 61.4%)" stroke-width="1.5"></path><path d="M112.11 987.61L342.93 951.18" stroke="hsl(0, 0.4%, 61.4%)" stroke-width="1.5"></path><path d="M112.11 987.61L254.46 789.94" stroke="hsl(0, 0.4%, 61.4%)" stroke-width="1.5"></path><path d="M193.64 940.31L193.64 940.31" stroke="hsl(0, 0.4%, 61.4%)" stroke-width="1.5"></path><path d="M357.88 709.16L357.88 709.16" stroke="hsl(0, 0.4%, 61.4%)" stroke-width="1.5"></path><path d="M357.88 709.16L409.11 815.56" stroke="hsl(0, 0.4%, 61.4%)" stroke-width="1.5"></path><path d="M357.88 709.16L558.79 697.05" stroke="hsl(0, 0.4%, 61.4%)" stroke-width="1.5"></path><path d="M357.88 709.16L342.93 951.18" stroke="hsl(0, 0.4%, 61.4%)" stroke-width="1.5"></path><path d="M357.88 709.16L193.64 940.31" stroke="hsl(0, 0.4%, 61.4%)" stroke-width="1.5"></path><path d="M409.11 815.56L409.11 815.56" stroke="hsl(0, 0.4%, 61.4%)" stroke-width="1.5"></path><path d="M409.11 815.56L342.93 951.18" stroke="hsl(0, 0.4%, 61.4%)" stroke-width="1.5"></path><path d="M409.11 815.56L254.46 789.94" stroke="hsl(0, 0.4%, 61.4%)" stroke-width="1.5"></path><path d="M409.11 815.56L558.79 697.05" stroke="hsl(0, 0.4%, 61.4%)" stroke-width="1.5"></path><path d="M558.79 697.05L558.79 697.05" stroke="hsl(0, 0.4%, 61.4%)" stroke-width="1.5"></path><path d="M558.79 697.05L659.51 675.44" stroke="hsl(0, 0.4%, 61.4%)" stroke-width="1.5"></path><path d="M659.51 675.44L659.51 675.44" stroke="hsl(0, 0.4%, 61.4%)" stroke-width="1.5"></path><path d="M659.51 675.44L673.26 812.34" stroke="hsl(0, 0.4%, 61.4%)" stroke-width="1.5"></path><path d="M659.51 675.44L512.69 813.61" stroke="hsl(0, 0.4%, 61.4%)" stroke-width="1.5"></path><path d="M673.26 812.34L673.26 812.34" stroke="hsl(0, 0.4%, 61.4%)" stroke-width="1.5"></path><path d="M673.26 812.34L558.79 697.05" stroke="hsl(0, 0.4%, 61.4%)" stroke-width="1.5"></path><path d="M673.26 812.34L852.73 822.43" stroke="hsl(0, 0.4%, 61.4%)" stroke-width="1.5"></path><path d="M673.26 812.34L662.62 1000.11" stroke="hsl(0, 0.4%, 61.4%)" stroke-width="1.5"></path><path d="M673.26 812.34L822.15 938.93" stroke="hsl(0, 0.4%, 61.4%)" stroke-width="1.5"></path><path d="M662.62 1000.11L662.62 1000.11" stroke="hsl(0, 0.4%, 61.4%)" stroke-width="1.5"></path><path d="M662.62 1000.11L822.15 938.93" stroke="hsl(0, 0.4%, 61.4%)" stroke-width="1.5"></path><path d="M662.62 1000.11L512.69 813.61" stroke="hsl(0, 0.4%, 61.4%)" stroke-width="1.5"></path><path d="M662.62 1000.11L852.73 822.43" stroke="hsl(0, 0.4%, 61.4%)" stroke-width="1.5"></path><path d="M662.62 1000.11L956.17 975.91" stroke="hsl(0, 0.4%, 61.4%)" stroke-width="1.5"></path><path d="M852.73 822.43L852.73 822.43" stroke="hsl(0, 0.4%, 61.4%)" stroke-width="1.5"></path><path d="M852.73 822.43L822.15 938.93" stroke="hsl(0, 0.4%, 61.4%)" stroke-width="1.5"></path><path d="M852.73 822.43L998.05 809.28" stroke="hsl(0, 0.4%, 61.4%)" stroke-width="1.5"></path><path d="M822.15 938.93L822.15 938.93" stroke="hsl(0, 0.4%, 61.4%)" stroke-width="1.5"></path><path d="M822.15 938.93L956.17 975.91" stroke="hsl(0, 0.4%, 61.4%)" stroke-width="1.5"></path><path d="M982.53 496.08L982.53 496.08" stroke="hsl(0, 0.4%, 61.4%)" stroke-width="1.5"></path><path d="M982.53 496.08L1113.95 525.55" stroke="hsl(0, 0.4%, 61.4%)" stroke-width="1.5"></path><path d="M982.53 496.08L1096.6 409" stroke="hsl(0, 0.4%, 61.4%)" stroke-width="1.5"></path><path d="M982.53 496.08L961.7 662.03" stroke="hsl(0, 0.4%, 61.4%)" stroke-width="1.5"></path><path d="M982.53 496.08L1114.64 698.17" stroke="hsl(0, 0.4%, 61.4%)" stroke-width="1.5"></path><path d="M982.53 496.08L1263.87 537.44" stroke="hsl(0, 0.4%, 61.4%)" stroke-width="1.5"></path><path d="M961.7 662.03L961.7 662.03" stroke="hsl(0, 0.4%, 61.4%)" stroke-width="1.5"></path><path d="M961.7 662.03L998.05 809.28" stroke="hsl(0, 0.4%, 61.4%)" stroke-width="1.5"></path><path d="M998.05 809.28L998.05 809.28" stroke="hsl(0, 0.4%, 61.4%)" stroke-width="1.5"></path><path d="M956.17 975.91L956.17 975.91" stroke="hsl(0, 0.4%, 61.4%)" stroke-width="1.5"></path><path d="M956.17 975.91L1104.27 1007.2" stroke="hsl(0, 0.4%, 61.4%)" stroke-width="1.5"></path><path d="M956.17 975.91L998.05 809.28" stroke="hsl(0, 0.4%, 61.4%)" stroke-width="1.5"></path><path d="M956.17 975.91L1097.06 860.36" stroke="hsl(0, 0.4%, 61.4%)" stroke-width="1.5"></path><path d="M956.17 975.91L852.73 822.43" stroke="hsl(0, 0.4%, 61.4%)" stroke-width="1.5"></path><path d="M1094.41 232.44L1094.41 232.44" stroke="hsl(0, 0.4%, 61.4%)" stroke-width="1.5"></path><path d="M1094.41 232.44L1096.6 409" stroke="hsl(0, 0.4%, 61.4%)" stroke-width="1.5"></path><path d="M1094.41 232.44L1286.17 221.05" stroke="hsl(0, 0.4%, 61.4%)" stroke-width="1.5"></path><path d="M1094.41 232.44L1259.37 386.6" stroke="hsl(0, 0.4%, 61.4%)" stroke-width="1.5"></path><path d="M1094.41 232.44L1292.23 46.53" stroke="hsl(0, 0.4%, 61.4%)" stroke-width="1.5"></path><path d="M1094.41 232.44L982.53 496.08" stroke="hsl(0, 0.4%, 61.4%)" stroke-width="1.5"></path><path d="M1096.6 409L1096.6 409" stroke="hsl(0, 0.4%, 61.4%)" stroke-width="1.5"></path><path d="M1096.6 409L1113.95 525.55" stroke="hsl(0, 0.4%, 61.4%)" stroke-width="1.5"></path><path d="M1113.95 525.55L1113.95 525.55" stroke="hsl(0, 0.4%, 61.4%)" stroke-width="1.5"></path><path d="M1104.27 1007.2L1104.27 1007.2" stroke="hsl(0, 0.4%, 61.4%)" stroke-width="1.5"></path><path d="M1104.27 1007.2L1304.86 972.43" stroke="hsl(0, 0.4%, 61.4%)" stroke-width="1.5"></path><path d="M1104.27 1007.2L998.05 809.28" stroke="hsl(0, 0.4%, 61.4%)" stroke-width="1.5"></path><path d="M1104.27 1007.2L1289.8 856.21" stroke="hsl(0, 0.4%, 61.4%)" stroke-width="1.5"></path><path d="M1104.27 1007.2L822.15 938.93" stroke="hsl(0, 0.4%, 61.4%)" stroke-width="1.5"></path><path d="M1292.23 46.53L1292.23 46.53" stroke="hsl(0, 0.4%, 61.4%)" stroke-width="1.5"></path><path d="M1292.23 46.53L1462.12 61.42" stroke="hsl(0, 0.4%, 61.4%)" stroke-width="1.5"></path><path d="M1292.23 46.53L1286.17 221.05" stroke="hsl(0, 0.4%, 61.4%)" stroke-width="1.5"></path><path d="M1292.23 46.53L1423.27 -99.34" stroke="hsl(0, 0.4%, 61.4%)" stroke-width="1.5"></path><path d="M1292.23 46.53L1416.38 225.96" stroke="hsl(0, 0.4%, 61.4%)" stroke-width="1.5"></path><path d="M1286.17 221.05L1286.17 221.05" stroke="hsl(0, 0.4%, 61.4%)" stroke-width="1.5"></path><path d="M1286.17 221.05L1416.38 225.96" stroke="hsl(0, 0.4%, 61.4%)" stroke-width="1.5"></path><path d="M1286.17 221.05L1259.37 386.6" stroke="hsl(0, 0.4%, 61.4%)" stroke-width="1.5"></path><path d="M1286.17 221.05L1419.76 376.68" stroke="hsl(0, 0.4%, 61.4%)" stroke-width="1.5"></path><path d="M1259.37 386.6L1259.37 386.6" stroke="hsl(0, 0.4%, 61.4%)" stroke-width="1.5"></path><path d="M1259.37 386.6L1263.87 537.44" stroke="hsl(0, 0.4%, 61.4%)" stroke-width="1.5"></path><path d="M1259.37 386.6L1419.76 376.68" stroke="hsl(0, 0.4%, 61.4%)" stroke-width="1.5"></path><path d="M1259.37 386.6L1096.6 409" stroke="hsl(0, 0.4%, 61.4%)" stroke-width="1.5"></path><path d="M1259.37 386.6L1113.95 525.55" stroke="hsl(0, 0.4%, 61.4%)" stroke-width="1.5"></path><path d="M1263.87 537.44L1263.87 537.44" stroke="hsl(0, 0.4%, 61.4%)" stroke-width="1.5"></path><path d="M1263.87 537.44L1308.46 649.75" stroke="hsl(0, 0.4%, 61.4%)" stroke-width="1.5"></path><path d="M1263.87 537.44L1113.95 525.55" stroke="hsl(0, 0.4%, 61.4%)" stroke-width="1.5"></path><path d="M1308.46 649.75L1308.46 649.75" stroke="hsl(0, 0.4%, 61.4%)" stroke-width="1.5"></path><path d="M1308.46 649.75L1431.37 497.93" stroke="hsl(0, 0.4%, 61.4%)" stroke-width="1.5"></path><path d="M1308.46 649.75L1114.64 698.17" stroke="hsl(0, 0.4%, 61.4%)" stroke-width="1.5"></path><path d="M1289.8 856.21L1289.8 856.21" stroke="hsl(0, 0.4%, 61.4%)" stroke-width="1.5"></path><path d="M1289.8 856.21L1304.86 972.43" stroke="hsl(0, 0.4%, 61.4%)" stroke-width="1.5"></path><path d="M1289.8 856.21L1447.16 799.42" stroke="hsl(0, 0.4%, 61.4%)" stroke-width="1.5"></path><path d="M1289.8 856.21L1097.06 860.36" stroke="hsl(0, 0.4%, 61.4%)" stroke-width="1.5"></path><path d="M1289.8 856.21L1453.59 962.64" stroke="hsl(0, 0.4%, 61.4%)" stroke-width="1.5"></path><path d="M1289.8 856.21L1308.46 649.75" stroke="hsl(0, 0.4%, 61.4%)" stroke-width="1.5"></path><path d="M1289.8 856.21L1114.64 698.17" stroke="hsl(0, 0.4%, 61.4%)" stroke-width="1.5"></path><path d="M1304.86 972.43L1304.86 972.43" stroke="hsl(0, 0.4%, 61.4%)" stroke-width="1.5"></path><path d="M1304.86 972.43L1453.59 962.64" stroke="hsl(0, 0.4%, 61.4%)" stroke-width="1.5"></path><path d="M1423.27 -99.34L1423.27 -99.34" stroke="hsl(0, 0.4%, 61.4%)" stroke-width="1.5"></path><path d="M1423.27 -99.34L1462.12 61.42" stroke="hsl(0, 0.4%, 61.4%)" stroke-width="1.5"></path><path d="M1423.27 -99.34L1590.18 -108.29" stroke="hsl(0, 0.4%, 61.4%)" stroke-width="1.5"></path><path d="M1462.12 61.42L1462.12 61.42" stroke="hsl(0, 0.4%, 61.4%)" stroke-width="1.5"></path><path d="M1462.12 61.42L1566.67 89.7" stroke="hsl(0, 0.4%, 61.4%)" stroke-width="1.5"></path><path d="M1462.12 61.42L1563.03 197.49" stroke="hsl(0, 0.4%, 61.4%)" stroke-width="1.5"></path><path d="M1462.12 61.42L1416.38 225.96" stroke="hsl(0, 0.4%, 61.4%)" stroke-width="1.5"></path><path d="M1462.12 61.42L1590.18 -108.29" stroke="hsl(0, 0.4%, 61.4%)" stroke-width="1.5"></path><path d="M1416.38 225.96L1416.38 225.96" stroke="hsl(0, 0.4%, 61.4%)" stroke-width="1.5"></path><path d="M1416.38 225.96L1563.03 197.49" stroke="hsl(0, 0.4%, 61.4%)" stroke-width="1.5"></path><path d="M1431.37 497.93L1431.37 497.93" stroke="hsl(0, 0.4%, 61.4%)" stroke-width="1.5"></path><path d="M1431.37 497.93L1559 492.84" stroke="hsl(0, 0.4%, 61.4%)" stroke-width="1.5"></path><path d="M1447.16 799.42L1447.16 799.42" stroke="hsl(0, 0.4%, 61.4%)" stroke-width="1.5"></path><path d="M1447.16 799.42L1587.07 853.11" stroke="hsl(0, 0.4%, 61.4%)" stroke-width="1.5"></path><path d="M1447.16 799.42L1453.59 962.64" stroke="hsl(0, 0.4%, 61.4%)" stroke-width="1.5"></path><path d="M1447.16 799.42L1568.13 659.52" stroke="hsl(0, 0.4%, 61.4%)" stroke-width="1.5"></path><path d="M1453.59 962.64L1453.59 962.64" stroke="hsl(0, 0.4%, 61.4%)" stroke-width="1.5"></path><path d="M1453.59 962.64L1560.92 996.08" stroke="hsl(0, 0.4%, 61.4%)" stroke-width="1.5"></path><path d="M1453.59 962.64L1587.07 853.11" stroke="hsl(0, 0.4%, 61.4%)" stroke-width="1.5"></path><path d="M1453.59 962.64L1453.75 684.01" stroke="hsl(0, 0.4%, 61.4%)" stroke-width="1.5"></path><path d="M1590.18 -108.29L1590.18 -108.29" stroke="hsl(0, 0.4%, 61.4%)" stroke-width="1.5"></path><path d="M1590.18 -108.29L1566.67 89.7" stroke="hsl(0, 0.4%, 61.4%)" stroke-width="1.5"></path><path d="M1566.67 89.7L1566.67 89.7" stroke="hsl(0, 0.4%, 61.4%)" stroke-width="1.5"></path><path d="M1566.67 89.7L1563.03 197.49" stroke="hsl(0, 0.4%, 61.4%)" stroke-width="1.5"></path><path d="M1563.03 197.49L1563.03 197.49" stroke="hsl(0, 0.4%, 61.4%)" stroke-width="1.5"></path><path d="M1592.67 403.42L1592.67 403.42" stroke="hsl(0, 0.4%, 61.4%)" stroke-width="1.5"></path><path d="M1592.67 403.42L1559 492.84" stroke="hsl(0, 0.4%, 61.4%)" stroke-width="1.5"></path><path d="M1592.67 403.42L1419.76 376.68" stroke="hsl(0, 0.4%, 61.4%)" stroke-width="1.5"></path><path d="M1559 492.84L1559 492.84" stroke="hsl(0, 0.4%, 61.4%)" stroke-width="1.5"></path><path d="M1587.07 853.11L1587.07 853.11" stroke="hsl(0, 0.4%, 61.4%)" stroke-width="1.5"></path><path d="M1587.07 853.11L1560.92 996.08" stroke="hsl(0, 0.4%, 61.4%)" stroke-width="1.5"></path><path d="M1560.92 996.08L1560.92 996.08" stroke="hsl(0, 0.4%, 61.4%)" stroke-width="1.5"></path><circle r="25" cx="254.46" cy="789.94" fill="url(&quot;#SvgjsRadialGradient1023&quot;)"></circle><circle r="25" cx="342.93" cy="951.18" fill="url(&quot;#SvgjsRadialGradient1023&quot;)"></circle><circle r="25" cx="512.69" cy="813.61" fill="url(&quot;#SvgjsRadialGradient1023&quot;)"></circle><circle r="25" cx="845.86" cy="516.79" fill="url(&quot;#SvgjsRadialGradient1023&quot;)"></circle><circle r="25" cx="1114.64" cy="698.17" fill="url(&quot;#SvgjsRadialGradient1023&quot;)"></circle><circle r="25" cx="1097.06" cy="860.36" fill="url(&quot;#SvgjsRadialGradient1023&quot;)"></circle><circle r="25" cx="1419.76" cy="376.68" fill="url(&quot;#SvgjsRadialGradient1023&quot;)"></circle><circle r="25" cx="1453.75" cy="684.01" fill="url(&quot;#SvgjsRadialGradient1023&quot;)"></circle><circle r="25" cx="1568.13" cy="659.52" fill="url(&quot;#SvgjsRadialGradient1023&quot;)"></circle><circle r="5" cx="-108.6" cy="808.93" fill="#bcbcbc"></circle><circle r="5" cx="-55.63" cy="997.75" fill="#bcbcbc"></circle><circle r="5" cx="81.52" cy="817.13" fill="#bcbcbc"></circle><circle r="5" cx="112.11" cy="987.61" fill="#bcbcbc"></circle><circle r="5" cx="193.64" cy="940.31" fill="#bcbcbc"></circle><circle r="5" cx="357.88" cy="709.16" fill="#bcbcbc"></circle><circle r="5" cx="409.11" cy="815.56" fill="#bcbcbc"></circle><circle r="5" cx="558.79" cy="697.05" fill="#bcbcbc"></circle><circle r="5" cx="659.51" cy="675.44" fill="#bcbcbc"></circle><circle r="5" cx="673.26" cy="812.34" fill="#bcbcbc"></circle><circle r="5" cx="662.62" cy="1000.11" fill="#bcbcbc"></circle><circle r="5" cx="852.73" cy="822.43" fill="#bcbcbc"></circle><circle r="5" cx="822.15" cy="938.93" fill="#bcbcbc"></circle><circle r="5" cx="982.53" cy="496.08" fill="#bcbcbc"></circle><circle r="5" cx="961.7" cy="662.03" fill="#bcbcbc"></circle><circle r="5" cx="998.05" cy="809.28" fill="#bcbcbc"></circle><circle r="5" cx="956.17" cy="975.91" fill="#bcbcbc"></circle><circle r="5" cx="1094.41" cy="232.44" fill="#bcbcbc"></circle><circle r="5" cx="1096.6" cy="409" fill="#bcbcbc"></circle><circle r="5" cx="1113.95" cy="525.55" fill="#bcbcbc"></circle><circle r="5" cx="1104.27" cy="1007.2" fill="#bcbcbc"></circle><circle r="5" cx="1292.23" cy="46.53" fill="#bcbcbc"></circle><circle r="5" cx="1286.17" cy="221.05" fill="#bcbcbc"></circle><circle r="5" cx="1259.37" cy="386.6" fill="#bcbcbc"></circle><circle r="5" cx="1263.87" cy="537.44" fill="#bcbcbc"></circle><circle r="5" cx="1308.46" cy="649.75" fill="#bcbcbc"></circle><circle r="5" cx="1289.8" cy="856.21" fill="#bcbcbc"></circle><circle r="5" cx="1304.86" cy="972.43" fill="#bcbcbc"></circle><circle r="5" cx="1423.27" cy="-99.34" fill="#bcbcbc"></circle><circle r="5" cx="1462.12" cy="61.42" fill="#bcbcbc"></circle><circle r="5" cx="1416.38" cy="225.96" fill="#bcbcbc"></circle><circle r="5" cx="1431.37" cy="497.93" fill="#bcbcbc"></circle><circle r="5" cx="1447.16" cy="799.42" fill="#bcbcbc"></circle><circle r="5" cx="1453.59" cy="962.64" fill="#bcbcbc"></circle><circle r="5" cx="1590.18" cy="-108.29" fill="#bcbcbc"></circle><circle r="5" cx="1566.67" cy="89.7" fill="#bcbcbc"></circle><circle r="5" cx="1563.03" cy="197.49" fill="#bcbcbc"></circle><circle r="5" cx="1592.67" cy="403.42" fill="#bcbcbc"></circle><circle r="5" cx="1559" cy="492.84" fill="#bcbcbc"></circle><circle r="5" cx="1587.07" cy="853.11" fill="#bcbcbc"></circle><circle r="5" cx="1560.92" cy="996.08" fill="#bcbcbc"></circle></g><defs><mask id="SvgjsMask1022"><rect width="1440" height="900" fill="#ffffff"></rect></mask><radialGradient id="SvgjsRadialGradient1023"><stop stop-color="#ffffff" offset="0.1"></stop><stop stop-color="rgba(121, 120, 120, 1)" offset="0.2"></stop><stop stop-color="rgba(121, 120, 120, 0)" offset="1"></stop></radialGradient></defs></svg>