<?xml version="1.0" encoding="utf-8"?>
<svg xmlns="http://www.w3.org/2000/svg" id="master-artboard" viewBox="0 0 1347.111083984375 1111" version="1.1" x="0px" y="0px" style="enable-background:new 0 0 1400 980;" width="1347.111083984375px" height="1111px">

<defs>
			<filter id="Adobe_OpacityMaskFilter" filterUnits="userSpaceOnUse" x="356.1" y="840.6" width="687.2" height="77.8">
				<feColorMatrix type="matrix" values="1 0 0 0 0  0 1 0 0 0  0 0 1 0 0  0 0 0 1 0"/>
			</filter>
		</defs><mask maskUnits="userSpaceOnUse" x="356.1" y="840.6" width="687.2" height="77.8" id="SVGID_1_">
			<g class="st129" style="filter: url('#Adobe_OpacityMaskFilter');">
				
					<linearGradient id="SVGID_2_" gradientUnits="userSpaceOnUse" x1="708.3295" y1="758.5515" x2="709.9416" y2="913.2393" gradientTransform="matrix(1 5.300000e-03 -5.300000e-03 1 -1.9622 11.0598)">
					<stop offset="0" style="stop-color:#FFFFFF"/>
					<stop offset="9.525152e-02" style="stop-color:#D1D1D1"/>
					<stop offset="0.2385" style="stop-color:#929292"/>
					<stop offset="0.3758" style="stop-color:#5E5E5E"/>
					<stop offset="0.5033" style="stop-color:#353535"/>
					<stop offset="0.6187" style="stop-color:#181818"/>
					<stop offset="0.7182" style="stop-color:#060606"/>
					<stop offset="0.7903" style="stop-color:#000000"/>
				</linearGradient>
				<path d="M 1060 941 L 345.20001220703125 937.2000122070312 L 345.79998779296875 825.2000122070312 L 1060.5999755859375 829 Z" class="st130" style="fill: url('#SVGID_2_');"/>
			</g>
		</mask><path class="st128" d="M897.8,899.6l22,0.1c4.9,0,8.7-0.3,11.3-1c3.5-0.9,6.6-2.7,9-5.1c2.5-2.4,4.5-5.4,5.8-8.9&#10;&#9;&#9;&#9;&#9;c1.4-3.6,2.1-8,2.1-13.2c0.1-4.6-0.6-8.5-1.8-11.9c-1.5-4-3.6-7.4-6.4-9.9c-2.1-1.9-4.9-3.4-8.5-4.5c-2.6-0.8-6.2-1.2-10.6-1.2&#10;&#9;&#9;&#9;&#9;l-22.7-0.1L897.8,899.6z M909.9,890.2l0.1-36.9h9.1c3.3,0,5.8,0.2,7.3,0.6c1.9,0.5,3.6,1.2,4.8,2.3c1.3,1.1,2.4,2.9,3.2,5.4&#10;&#9;&#9;&#9;&#9;c0.7,2.5,1.1,5.9,1.1,10.2c0,4.4-0.5,7.6-1.3,10c-0.8,2.3-1.9,4.1-3.4,5.4c-1.5,1.2-3.4,2.1-5.6,2.6c-1.6,0.4-5,0.5-9.9,0.5&#10;&#9;&#9;&#9;&#9;H909.9z" style="fill: rgb(57, 79, 86); mask: url('#SVGID_1_');" transform="matrix(0.9999999999999999, 0, 0, 0.9999999999999999, 0, -7.105427357601002e-15)"/><path class="st128" d="M966.6,872.3l-10.5,1.7c1.2,3.9,3.2,6.8,6.1,8.7c2.8,1.9,7,2.8,12.7,2.9c5.1,0.1,8.9-0.5,11.4-1.6&#10;&#9;&#9;&#9;&#9;c2.5-1.2,4.2-2.5,5.3-4.3c0.9-1.8,1.5-4.9,1.5-9.6l-0.1-12.4c0.1-3.6,0.2-6.2,0.6-7.9c0.4-1.8,1.1-3.5,2.1-5.4l-11.4-0.1&#10;&#9;&#9;&#9;&#9;c-0.3,0.7-0.7,1.8-1.1,3.2c-0.2,0.6-0.4,1-0.5,1.2c-1.9-1.8-4-3.1-6.2-4c-2.3-0.8-4.6-1.4-7.2-1.4c-4.5,0-8,1.1-10.6,3.4&#10;&#9;&#9;&#9;&#9;c-2.5,2.2-3.8,5-3.8,8.5c0,2.3,0.6,4.3,1.8,6.1c1.1,1.8,2.8,3.2,4.9,4.1c2,1,5.1,1.8,9.1,2.5c5.4,1,9.1,1.9,11.1,2.7v1.1&#10;&#9;&#9;&#9;&#9;c0,2-0.6,3.5-1.8,4.4c-1,0.8-3.1,1.3-6.1,1.3c-2,0-3.6-0.4-4.8-1.2C968.2,875.5,967.3,874.2,966.6,872.3z M982,863.6&#10;&#9;&#9;&#9;&#9;c-1.5-0.5-3.8-1-7-1.6c-3.1-0.6-5.3-1.2-6.2-1.9c-1.5-1-2.3-2.3-2.2-3.7c-0.1-1.5,0.5-2.8,1.8-3.9c1.2-1,2.8-1.6,4.6-1.6&#10;&#9;&#9;&#9;&#9;c2,0,4,0.6,5.9,1.9c1.4,1,2.3,2.1,2.7,3.6c0.3,0.9,0.5,2.7,0.5,5.2V863.6z" style="fill: rgb(57, 79, 86); mask: url('#SVGID_1_');" transform="matrix(0.9999999999999999, 0, 0, 0.9999999999999999, 0, -7.105427357601002e-15)"/><path class="st128" d="M998.8,918.2h12.2l10.5-28.6l10,28.8h11.9l-15.1-38.9l-2.7-7.1c-1-2.3-2-4.2-2.9-5.4&#10;&#9;&#9;&#9;&#9;c-0.9-1.3-1.9-2.3-3.1-3c-1.2-0.8-2.7-1.5-4.4-1.9c-1.8-0.4-3.6-0.7-5.8-0.7c-2.2,0-4.4,0.2-6.5,0.7l-1.1,8.3&#10;&#9;&#9;&#9;&#9;c1.8-0.3,3.4-0.5,4.8-0.5c2.7,0,4.6,0.7,5.9,2.3c1.2,1.4,2.2,3.3,2.8,5.5L998.8,918.2z" style="fill: rgb(57, 79, 86); mask: url('#SVGID_1_');" transform="matrix(0.9999999999999999, 0, 0, 0.9999999999999999, 0, -7.105427357601002e-15)"/>
<g transform="matrix(0.9999999999999999, 0, 0, 0.9999999999999999, 0, -7.105427357601002e-15)">
		<g transform="matrix(1.4966260723740115, 0, 0, 1.4966260723740115, -346.55023193359375, -51.9825439453125)">
			<path d="M 210 0 H 1190.099976 V 980 H 210 V 0 Z" class="st0" style="fill: rgb(230, 235, 244);"/>
			<path d="M 0 0 H 1400 V 980 H 0 V 0 Z" class="st1" style="opacity: 0.57; fill: rgb(230, 235, 244);"/>
			<g>
				<g>
					<path class="st2" d="M317.7,502.5c0,14.3,11.5,25.8,25.8,25.8c14.3,0,25.8-11.5,25.8-25.8c0-14.2-11.5-25.7-25.8-25.7&#10;&#9;&#9;&#9;&#9;&#9;&#9;C329.3,476.7,317.7,488.3,317.7,502.5z" style="opacity: 0.42; fill: rgb(255, 255, 255);"/>
					<path class="st2" d="M489.8,438.9c0,28.2,22.9,51.1,51.1,51.1c28.2,0,51.1-22.9,51.1-51.1c0-28.2-22.9-51.1-51.1-51.1&#10;&#9;&#9;&#9;&#9;&#9;&#9;C512.6,387.8,489.8,410.7,489.8,438.9z" style="opacity: 0.42; fill: rgb(255, 255, 255);"/>
					<path class="st2" d="M927.9,340.1c0,38.6,31.3,69.8,69.9,69.8c38.5,0,69.8-31.2,69.8-69.8c0-38.6-31.2-69.8-69.8-69.8&#10;&#9;&#9;&#9;&#9;&#9;&#9;C959.2,270.2,927.9,301.4,927.9,340.1z" style="opacity: 0.42; fill: rgb(255, 255, 255);"/>
					<path class="st2" d="M1073.8,547.1c0,6.8,5.6,12.4,12.4,12.4c6.8,0,12.3-5.5,12.3-12.4c0-6.8-5.5-12.3-12.3-12.3&#10;&#9;&#9;&#9;&#9;&#9;&#9;C1079.4,534.9,1073.8,540.4,1073.8,547.1z" style="opacity: 0.42; fill: rgb(255, 255, 255);"/>
					<path class="st2" d="M1130.7,407.2c0,5.5,4.5,10,10,10c5.5,0,10-4.5,10-10c0-5.5-4.5-10-10-10&#10;&#9;&#9;&#9;&#9;&#9;&#9;C1135.2,397.3,1130.7,401.7,1130.7,407.2z" style="opacity: 0.42; fill: rgb(255, 255, 255);"/>
					<path class="st2" d="M949.2,487.2c0,19,15.4,34.4,34.5,34.4c19,0,34.5-15.4,34.5-34.4c0-19.1-15.4-34.5-34.5-34.5&#10;&#9;&#9;&#9;&#9;&#9;&#9;C964.5,452.7,949.2,468.1,949.2,487.2z" style="opacity: 0.42; fill: rgb(255, 255, 255);"/>
					<path class="st2" d="M786,472.3c0,7.8,6.4,14.2,14.3,14.2c7.9,0,14.2-6.4,14.2-14.2c0-7.9-6.4-14.2-14.2-14.2&#10;&#9;&#9;&#9;&#9;&#9;&#9;C792.4,458.1,786,464.4,786,472.3z" style="opacity: 0.42; fill: rgb(255, 255, 255);"/>
					<path class="st2" d="M933.9,59.1c0,18.4,14.9,33.4,33.3,33.4c18.4,0,33.4-14.9,33.4-33.4c0-18.4-14.9-33.4-33.4-33.4&#10;&#9;&#9;&#9;&#9;&#9;&#9;C948.8,25.7,933.9,40.7,933.9,59.1z" style="opacity: 0.42; fill: rgb(255, 255, 255);"/>
					<path class="st2" d="M581.2,429.5c0,5.2,4.2,9.4,9.4,9.4c5.2,0,9.4-4.2,9.4-9.4c0-5.2-4.2-9.4-9.4-9.4&#10;&#9;&#9;&#9;&#9;&#9;&#9;C585.5,420.1,581.2,424.3,581.2,429.5z" style="opacity: 0.42; fill: rgb(255, 255, 255);"/>
					<path class="st2" d="M282,119.5c0,38.4,31.1,69.6,69.7,69.6c38.5,0,69.6-31.2,69.6-69.6c0-38.5-31.1-69.7-69.6-69.7&#10;&#9;&#9;&#9;&#9;&#9;&#9;C313.2,49.8,282,81,282,119.5z" style="opacity: 0.42; fill: rgb(255, 255, 255);"/>
					<path class="st2" d="M498.8,490.4c0,27.5,22.3,49.7,49.8,49.7c27.5,0,49.7-22.3,49.7-49.7c0-27.4-22.2-49.7-49.7-49.7&#10;&#9;&#9;&#9;&#9;&#9;&#9;C521.2,440.7,498.8,463,498.8,490.4z" style="opacity: 0.42; fill: rgb(255, 255, 255);"/>
				</g>
				<g class="st3" style="opacity: 0.2;">
					<path class="st2" d="M1120.7,531c0,15.4-12.4,28-27.9,28s-28-12.5-28-28c0-15.5,12.5-28,28-28S1120.7,515.5,1120.7,531z" style="opacity: 0.42; fill: rgb(255, 255, 255);"/>
					<path class="st2" d="M933.7,461.9c0,30.6-24.8,55.5-55.5,55.5c-30.7,0-55.5-24.9-55.5-55.5c0-30.7,24.8-55.6,55.5-55.6&#10;&#9;&#9;&#9;&#9;&#9;&#9;C908.9,406.3,933.7,431.2,933.7,461.9z" style="opacity: 0.42; fill: rgb(255, 255, 255);"/>
					<path class="st2" d="M457.5,354.4c0,41.9-34,75.9-76,75.9c-41.9,0-75.9-33.9-75.9-75.9c0-42,34-76,75.9-76&#10;&#9;&#9;&#9;&#9;&#9;&#9;C423.5,278.4,457.5,312.4,457.5,354.4z" style="opacity: 0.42; fill: rgb(255, 255, 255);"/>
					<path class="st2" d="M298.9,579.6c0,7.4-6.1,13.5-13.5,13.5c-7.4,0-13.5-6.1-13.5-13.5c0-7.4,6.1-13.5,13.5-13.5&#10;&#9;&#9;&#9;&#9;&#9;&#9;C292.8,566.1,298.9,572.2,298.9,579.6z" style="opacity: 0.42; fill: rgb(255, 255, 255);"/>
					<path class="st2" d="M237,427.5c0,6-4.9,10.8-10.9,10.8c-6.1,0-10.9-4.8-10.9-10.8c0-6,4.8-10.9,10.9-10.9&#10;&#9;&#9;&#9;&#9;&#9;&#9;C232.1,416.6,237,421.5,237,427.5z" style="opacity: 0.42; fill: rgb(255, 255, 255);"/>
					<path class="st2" d="M434.4,514.4c0,20.7-16.8,37.5-37.5,37.5c-20.7,0-37.5-16.8-37.5-37.5c0-20.7,16.9-37.5,37.5-37.5&#10;&#9;&#9;&#9;&#9;&#9;&#9;C417.5,476.9,434.4,493.6,434.4,514.4z" style="opacity: 0.42; fill: rgb(255, 255, 255);"/>
					<path class="st2" d="M611.6,498.2c0,8.6-6.9,15.5-15.4,15.5c-8.5,0-15.5-6.9-15.5-15.5c0-8.5,7-15.4,15.5-15.4&#10;&#9;&#9;&#9;&#9;&#9;&#9;C604.7,482.7,611.6,489.6,611.6,498.2z" style="opacity: 0.42; fill: rgb(255, 255, 255);"/>
					<path class="st2" d="M834.2,451.6c0,5.7-4.5,10.2-10.2,10.2c-5.6,0-10.2-4.6-10.2-10.2c0-5.7,4.6-10.3,10.2-10.3&#10;&#9;&#9;&#9;&#9;&#9;&#9;C829.7,441.3,834.2,445.9,834.2,451.6z" style="opacity: 0.42; fill: rgb(255, 255, 255);"/>
					<path class="st2" d="M734.3,318.8c0,43.3-35,78.3-78.2,78.3c-43.3,0-78.3-34.9-78.3-78.3c0-43.1,35-78.2,78.3-78.2&#10;&#9;&#9;&#9;&#9;&#9;&#9;C699.3,240.6,734.3,275.7,734.3,318.8z" style="opacity: 0.42; fill: rgb(255, 255, 255);"/>
					<path class="st2" d="M1159.6,114.6c0,41.8-33.9,75.8-75.8,75.8c-41.8,0-75.6-33.9-75.6-75.8c0-41.8,33.8-75.8,75.6-75.8&#10;&#9;&#9;&#9;&#9;&#9;&#9;C1125.7,38.8,1159.6,72.8,1159.6,114.6z" style="opacity: 0.42; fill: rgb(255, 255, 255);"/>
					<path class="st2" d="M923.9,517.9c0,29.7-24.2,54-54.1,54c-29.9,0-54-24.3-54-54c0-29.8,24.1-54,54-54&#10;&#9;&#9;&#9;&#9;&#9;&#9;C899.6,463.9,923.9,488.1,923.9,517.9z" style="opacity: 0.42; fill: rgb(255, 255, 255);"/>
					<path class="st2" d="M817.7,443.8c0,42.9-34.9,77.7-77.9,77.7c-42.9,0-77.8-34.8-77.8-77.7c0-43,34.9-77.7,77.8-77.7&#10;&#9;&#9;&#9;&#9;&#9;&#9;C782.8,366.1,817.7,400.8,817.7,443.8z" style="opacity: 0.42; fill: rgb(255, 255, 255);"/>
				</g>
			</g>
			<g>
				<g>
					<path class="st2" d="M1059,472.9c0-14.3-11.5-25.8-25.8-25.8c-14.3,0-25.8,11.5-25.8,25.8c0,14.2,11.5,25.7,25.8,25.7&#10;&#9;&#9;&#9;&#9;&#9;&#9;C1047.4,498.6,1059,487.1,1059,472.9z" style="opacity: 0.42; fill: rgb(255, 255, 255);"/>
					<path class="st2" d="M886.9,536.5c0-28.2-22.8-51.1-51-51.1c-28.2,0-51.2,22.9-51.2,51.1c0,28.2,22.9,51.1,51.2,51.1&#10;&#9;&#9;&#9;&#9;&#9;&#9;C864.1,587.6,886.9,564.7,886.9,536.5z" style="opacity: 0.42; fill: rgb(255, 255, 255);"/>
					<path class="st2" d="M448.8,635.3c0-38.5-31.3-69.8-69.9-69.8c-38.5,0-69.8,31.2-69.8,69.8c0,38.6,31.3,69.9,69.8,69.9&#10;&#9;&#9;&#9;&#9;&#9;&#9;C417.5,705.2,448.8,673.9,448.8,635.3z" style="opacity: 0.42; fill: rgb(255, 255, 255);"/>
					<path class="st2" d="M302.9,428.3c0-6.8-5.5-12.4-12.3-12.4c-6.9,0-12.4,5.5-12.4,12.4c0,6.8,5.5,12.3,12.4,12.3&#10;&#9;&#9;&#9;&#9;&#9;&#9;C297.3,440.5,302.9,435,302.9,428.3z" style="opacity: 0.42; fill: rgb(255, 255, 255);"/>
					<path class="st2" d="M246,568.1c0-5.5-4.5-10-10.1-10c-5.5,0-10,4.5-10,10c0,5.5,4.5,10,10,10C241.5,578.1,246,573.7,246,568.1&#10;&#9;&#9;&#9;&#9;&#9;&#9;z" style="opacity: 0.42; fill: rgb(255, 255, 255);"/>
					<path class="st2" d="M427.5,488.2c0-19-15.4-34.4-34.5-34.4c-19,0-34.5,15.4-34.5,34.4c0,19.1,15.4,34.5,34.5,34.5&#10;&#9;&#9;&#9;&#9;&#9;&#9;C412.1,522.7,427.5,507.2,427.5,488.2z" style="opacity: 0.42; fill: rgb(255, 255, 255);"/>
					<path class="st2" d="M590.7,503.1c0-7.8-6.4-14.2-14.3-14.2c-7.8,0-14.2,6.4-14.2,14.2c0,7.9,6.4,14.2,14.2,14.2&#10;&#9;&#9;&#9;&#9;&#9;&#9;C584.3,517.3,590.7,510.9,590.7,503.1z" style="opacity: 0.42; fill: rgb(255, 255, 255);"/>
					<path class="st2" d="M442.8,916.3c0-18.4-14.9-33.4-33.4-33.4c-18.4,0-33.4,14.9-33.4,33.4c0,18.4,14.9,33.3,33.4,33.3&#10;&#9;&#9;&#9;&#9;&#9;&#9;C427.9,949.6,442.8,934.7,442.8,916.3z" style="opacity: 0.42; fill: rgb(255, 255, 255);"/>
					<path class="st2" d="M795.5,545.9c0-5.2-4.3-9.4-9.4-9.4c-5.2,0-9.4,4.2-9.4,9.4c0,5.2,4.2,9.4,9.4,9.4&#10;&#9;&#9;&#9;&#9;&#9;&#9;C791.2,555.3,795.5,551.1,795.5,545.9z" style="opacity: 0.42; fill: rgb(255, 255, 255);"/>
					<path class="st2" d="M1094.7,855.9c0-38.4-31.2-69.6-69.7-69.6c-38.5,0-69.6,31.2-69.6,69.6c0,38.5,31.1,69.7,69.6,69.7&#10;&#9;&#9;&#9;&#9;&#9;&#9;C1063.5,925.6,1094.7,894.4,1094.7,855.9z" style="opacity: 0.42; fill: rgb(255, 255, 255);"/>
					<path class="st2" d="M877.8,485c0-27.5-22.3-49.7-49.7-49.7c-27.5,0-49.7,22.3-49.7,49.7c0,27.4,22.3,49.7,49.7,49.7&#10;&#9;&#9;&#9;&#9;&#9;&#9;C855.5,534.7,877.8,512.4,877.8,485z" style="opacity: 0.42; fill: rgb(255, 255, 255);"/>
				</g>
				<g class="st3" style="opacity: 0.2;">
					<path class="st2" d="M255.9,444.4c0-15.4,12.4-28,28-28c15.5,0,28,12.5,28,28c0,15.5-12.5,28-28,28&#10;&#9;&#9;&#9;&#9;&#9;&#9;C268.4,472.4,255.9,459.9,255.9,444.4z" style="opacity: 0.42; fill: rgb(255, 255, 255);"/>
					<path class="st2" d="M442.9,513.5c0-30.6,24.8-55.5,55.6-55.5c30.7,0,55.5,24.9,55.5,55.5c0,30.8-24.8,55.6-55.5,55.6&#10;&#9;&#9;&#9;&#9;&#9;&#9;C467.8,569.1,442.9,544.2,442.9,513.5z" style="opacity: 0.42; fill: rgb(255, 255, 255);"/>
					<path class="st2" d="M919.2,621c0-41.9,34-75.9,76-75.9c41.9,0,75.9,33.9,75.9,75.9c0,42-34,76-75.9,76&#10;&#9;&#9;&#9;&#9;&#9;&#9;C953.2,697,919.2,663,919.2,621z" style="opacity: 0.42; fill: rgb(255, 255, 255);"/>
					<path class="st2" d="M1077.8,395.8c0-7.4,6.1-13.4,13.5-13.4c7.4,0,13.5,6,13.5,13.4s-6.1,13.5-13.5,13.5&#10;&#9;&#9;&#9;&#9;&#9;&#9;C1083.9,409.3,1077.8,403.2,1077.8,395.8z" style="opacity: 0.42; fill: rgb(255, 255, 255);"/>
					<path class="st2" d="M1139.7,547.9c0-6,4.9-10.8,10.9-10.8c6.1,0,10.9,4.8,10.9,10.8c0,6-4.8,10.9-10.9,10.9&#10;&#9;&#9;&#9;&#9;&#9;&#9;C1144.6,558.8,1139.7,553.9,1139.7,547.9z" style="opacity: 0.42; fill: rgb(255, 255, 255);"/>
					<path class="st2" d="M942.3,461c0-20.7,16.8-37.5,37.5-37.5c20.6,0,37.5,16.8,37.5,37.5c0,20.7-16.9,37.5-37.5,37.5&#10;&#9;&#9;&#9;&#9;&#9;&#9;C959.1,498.5,942.3,481.8,942.3,461z" style="opacity: 0.42; fill: rgb(255, 255, 255);"/>
					<path class="st2" d="M765.1,477.2c0-8.6,6.8-15.5,15.4-15.5c8.5,0,15.5,6.9,15.5,15.5c0,8.5-7,15.4-15.5,15.4&#10;&#9;&#9;&#9;&#9;&#9;&#9;C771.9,492.7,765.1,485.7,765.1,477.2z" style="opacity: 0.42; fill: rgb(255, 255, 255);"/>
					<path class="st2" d="M542.4,523.8c0-5.7,4.6-10.2,10.2-10.2c5.6,0,10.2,4.6,10.2,10.2c0,5.7-4.6,10.3-10.2,10.3&#10;&#9;&#9;&#9;&#9;&#9;&#9;C547,534.1,542.4,529.5,542.4,523.8z" style="opacity: 0.42; fill: rgb(255, 255, 255);"/>
					<path class="st2" d="M642.3,656.5c0-43.3,35-78.2,78.2-78.2c43.2,0,78.3,34.9,78.3,78.2c0,43.2-35.1,78.2-78.3,78.2&#10;&#9;&#9;&#9;&#9;&#9;&#9;C677.3,734.8,642.3,699.7,642.3,656.5z" style="opacity: 0.42; fill: rgb(255, 255, 255);"/>
					<path class="st2" d="M217,860.8c0-41.9,33.9-75.7,75.8-75.7c41.8,0,75.6,33.9,75.6,75.7c0,41.8-33.8,75.8-75.6,75.8&#10;&#9;&#9;&#9;&#9;&#9;&#9;C251,936.6,217,902.6,217,860.8z" style="opacity: 0.42; fill: rgb(255, 255, 255);"/>
					<path class="st2" d="M452.8,457.5c0-29.7,24.2-54,54.1-54c29.9,0,54,24.3,54,54c0,29.8-24.1,54-54,54&#10;&#9;&#9;&#9;&#9;&#9;&#9;C477.1,511.5,452.8,487.3,452.8,457.5z" style="opacity: 0.42; fill: rgb(255, 255, 255);"/>
					<path class="st2" d="M559,531.6c0-42.9,34.9-77.7,77.9-77.7c42.9,0,77.7,34.8,77.7,77.7c0,43-34.9,77.7-77.7,77.7&#10;&#9;&#9;&#9;&#9;&#9;&#9;C593.8,609.3,559,574.6,559,531.6z" style="opacity: 0.42; fill: rgb(255, 255, 255);"/>
				</g>
			</g>
		</g>
		
	<g transform="matrix(1.2034255266189573, 0, 0, 1.2034255266189573, -174.71969324736926, 9.99272448292038)">
			
			<g transform="matrix(1.5552880764007568, 0, 0, 1.5552880764007568, -415.22312793755987, -260.8304665247329)">
				<path class="st128" d="M1010.6,337.1c0.7-0.8,1.2-1.5,1.2-1.5c-82.5,0-199.7-45.4-199.7-45.4s-30.3-18.4-53.5,4.3&#10;&#9;&#9;&#9;&#9;&#9;c-16.9,16.7-29.6,29.2-36.3,35.8V301c12.1-2.5,21.2-12.8,21.2-25.5c0-14.7-11.8-26.6-26.6-26.6c-14.7,0-26.6,11.9-26.6,26.6&#10;&#9;&#9;&#9;&#9;&#9;c0,12.8,9.3,23,21.3,25.5v29.5c-6.7-6.5-19.4-19.1-36.5-35.9c-22.9-22.7-53.4-4.3-53.4-4.3s-117.3,45.4-199.7,45.4&#10;&#9;&#9;&#9;&#9;&#9;c0,0,0.4,0.7,1.3,1.5c25,1.6,79.4,2.5,133.7-13.4c0,0-51.4,24.8-132.7,14.6c7.9,8.1,40.5,32.2,127.2,3.3c17.8-5.9,17.8-5.9,6,0&#10;&#9;&#9;&#9;&#9;&#9;c0,0-34.9,20.7-93.8,26.6c0,0,1.7,4.4,8.2,8.7c16-0.6,65.9-4.5,114.2-29.3c0,0-42.8,32.5-113.6,29.6&#10;&#9;&#9;&#9;&#9;&#9;c14.2,8.7,49.6,15.8,136-19.9c0,0,10.9-3,3.3,1.5c-7.7,4.4-62.5,27.9-105.5,31.1c0,0,5.1,4.4,16.2,7.5&#10;&#9;&#9;&#9;&#9;&#9;c23.2-4,68.7-13.7,111.2-34.5c0,0-38.5,26.4-109.2,35c20.6,5,59.9,5.8,125.3-26c0,0,8.2-1.7,1.9,1.5c-6.1,3.3-47.9,26.2-84,29.7&#10;&#9;&#9;&#9;&#9;&#9;c-2.8,0.4,9.3,4.4,28.3,4.6c16.1-3.8,44.6-12.6,70.9-31.1c0,0-22.3,22.6-64.4,30.9c21.7-0.8,50.5-7,76.9-28.2&#10;&#9;&#9;&#9;&#9;&#9;c0,0,21.4,14.2,32.3,19.1v85.9c-8.8-3.9-17.5-7.5-25.5-11.7c-6.7-3.4-13.1-7.5-17.1-11.4c-2-2-6-10.4-0.9-15&#10;&#9;&#9;&#9;&#9;&#9;c4.4-1.9,11.9-0.8,16.5,0.8l0.1-0.3c9.2,1.4,17.3-2.8,19.1-13.1c1.6-10.4-2.4-17.5-11.3-19.2v-0.3c-10.8-2-20.3-2.5-32.7,1.9&#10;&#9;&#9;&#9;&#9;&#9;c-6,2.3-12.4,6.9-16.4,13.3c-4.1,6.4-5.5,13.5-5.9,19.3c-0.1,3,0,5.8,0.1,8.5c0.2,2.6,1.4,8,2.9,10.7c3,6.7,7.3,11.1,11.4,14.5&#10;&#9;&#9;&#9;&#9;&#9;c8.3,6.6,16.4,10.1,24.4,13.4c5,2.1,9.9,3.6,14.8,5.4c-3.6,3.1-8,6.8-10.6,13.9c-2.8,7.6,0.3,16,3.6,20.2&#10;&#9;&#9;&#9;&#9;&#9;c2.7,3.5,5,6.6,7.9,10.1c4.7,5.8,10,11.1,15.2,16.1c-3,3.8-5.9,7.9-8.4,13c-4.2,8.7-4.8,21,1.9,29.4c3.2,4.2,6.7,7.8,10.3,10.9&#10;&#9;&#9;&#9;&#9;&#9;c-0.3,0.3-0.6,0.6-0.9,1c-5.7,5.8-12,11.4-16.7,19c-2.2,3.8-4.2,8.5-3.5,13.7c0.7,5,4.3,9.1,7,11.7c4.5,4.8,9.7,9,14.7,13.2v11&#10;&#9;&#9;&#9;&#9;&#9;c-1.9,2.5-3.2,5.2-3.6,8.1c0.7-2.6,2.3-5.3,3.6-7.9v11.5h10.6v-12.1c2.5,3.8,4.1,8.3,3.1,13.4c0.8-4.1,0.6-8.6-1.1-12.4&#10;&#9;&#9;&#9;&#9;&#9;c-0.5-1.2-1.3-2.1-2-3.2v-7.3c5.5-4.8,11.2-9.5,16.3-15c2.6-2.5,6.2-6.5,6.8-11.7c0.6-5.2-1.4-9.9-3.7-13.7&#10;&#9;&#9;&#9;&#9;&#9;c-4.9-7.5-11.2-13-17-18.8c-0.2-0.1-0.3-0.3-0.5-0.5c3.4-3.1,6.7-6.5,9.8-10.6c6.6-8.5,5.9-20.7,1.4-29.4&#10;&#9;&#9;&#9;&#9;&#9;c-2.6-5.2-5.7-9.3-8.9-13.2c5.2-5.3,10.6-10.8,15.3-16.8c2.9-3.5,5.2-6.5,7.8-10.2c3.1-4.1,6.3-12.6,3.3-20.2&#10;&#9;&#9;&#9;&#9;&#9;c-2.5-6.8-6.7-10.2-10.2-13.2c4.8-1.8,9.4-3.3,14.2-5.4c7.9-3.4,16-7.1,24.1-13.8c4-3.4,8.3-8.1,11.3-14.7&#10;&#9;&#9;&#9;&#9;&#9;c1.4-2.8,2.5-8.3,2.5-10.7c0.3-2.8,0.3-5.5,0.2-8.5c-0.3-5.9-2-12.8-6.1-19.3c-4.2-6.3-10.8-10.8-16.7-13&#10;&#9;&#9;&#9;&#9;&#9;c-12.4-4.2-21.8-3.5-32.7-1.4l0.1,0.3c-8.9,1.8-12.8,9-11.1,19.3c2,10.4,10.1,14.4,19.3,12.8v0.3c4.6-1.6,12.1-2.9,16.6-1&#10;&#9;&#9;&#9;&#9;&#9;c5,4.5,1.4,13-0.7,15c-3.9,4.2-10.2,8-16.8,11.5c-7.6,4.2-15.9,7.9-24.4,11.7v-85.7c11-5,32.2-19.1,32.2-19.1&#10;&#9;&#9;&#9;&#9;&#9;c26.4,21.2,55.1,27.3,76.8,28.2c-41.9-8.3-64.4-30.9-64.4-30.9c26.4,18.6,54.8,27.3,70.9,31.1c19.1-0.2,31.1-4.2,28.3-4.6&#10;&#9;&#9;&#9;&#9;&#9;c-36-3.6-77.9-26.4-84-29.7c-6.2-3.1,2-1.5,2-1.5c65.4,31.8,104.7,31,125.2,26c-70.6-8.6-109.1-35-109.1-35&#10;&#9;&#9;&#9;&#9;&#9;c42.3,20.8,87.9,30.5,111.1,34.5c11.1-3.1,16.2-7.5,16.2-7.5c-43-3.2-97.7-26.7-105.4-31.1c-7.7-4.4,3.2-1.5,3.2-1.5&#10;&#9;&#9;&#9;&#9;&#9;c86.2,35.7,121.7,28.6,135.8,19.9c-70.7,2.9-113.4-29.6-113.4-29.6c48.3,24.8,98,28.7,114,29.3c6.6-4.2,8.3-8.7,8.3-8.7&#10;&#9;&#9;&#9;&#9;&#9;c-58.9-5.9-93.9-26.6-93.9-26.6c-11.7-5.9-11.7-5.9,5.9,0c86.8,28.9,119.3,4.8,127.4-3.3c-81.4,10.2-132.9-14.6-132.9-14.6&#10;&#9;&#9;&#9;&#9;&#9;C931.2,339.7,985.5,338.7,1010.6,337.1z M698.4,524.8c-1.4-2.6-0.9-3-0.7-3.2c0.6-1.8,7.5-6.4,13.9-9.1v30.6&#10;&#9;&#9;&#9;&#9;&#9;c-2.3-2.7-4.8-5.5-6.8-8.5C702.7,531.7,700.4,528,698.4,524.8z M709.3,597.8c-3.5-5-2.8-12,0.5-17.5c0.5-0.9,1.3-1.6,1.9-2.4&#10;&#9;&#9;&#9;&#9;&#9;v22.9C711,599.8,710,598.8,709.3,597.8z M700.1,657c-6.2-5.9-6.3-12.8-1.5-18.8c3.6-4.8,8.3-8.8,13.1-13v44.2&#10;&#9;&#9;&#9;&#9;&#9;C707.8,665.4,703.6,661.4,700.1,657z M736.6,637.5c5.1,6.1,5,12.9-1.1,18.8c-4,5.1-8.7,9.8-13.2,14.5v-46.9&#10;&#9;&#9;&#9;&#9;&#9;C727.6,628.1,732.8,632.4,736.6,637.5z M725.5,598c-0.8,1.5-2.1,2.8-3.2,4.2v-24.6c0.7,1,1.7,1.9,2.3,2.9&#10;&#9;&#9;&#9;&#9;&#9;C728,586,728.9,592.9,725.5,598z M735.2,524.1c-1.9,3.3-4.3,7-6.3,10c-2,2.9-4.4,5.6-6.6,8.4v-30.1c6.4,2.5,12.9,6.8,13.5,8.5&#10;&#9;&#9;&#9;&#9;&#9;C736.1,521.1,736.5,521.6,735.2,524.1z" style="fill: rgb(57, 79, 86);"/>
				<path class="st128" d="M1010.6,337.1c0.7-0.8,1.2-1.5,1.2-1.5c-82.5,0-199.7-45.4-199.7-45.4s-30.3-18.4-53.5,4.3&#10;&#9;&#9;&#9;&#9;&#9;c-16.9,16.7-29.6,29.2-36.3,35.8V301c12.1-2.5,21.2-12.8,21.2-25.5c0-14.7-11.8-26.6-26.6-26.6c-14.7,0-26.6,11.9-26.6,26.6&#10;&#9;&#9;&#9;&#9;&#9;c0,12.8,9.3,23,21.3,25.5v29.5c-6.7-6.5-19.4-19.1-36.5-35.9c-22.9-22.7-53.4-4.3-53.4-4.3s-117.3,45.4-199.7,45.4&#10;&#9;&#9;&#9;&#9;&#9;c0,0,0.4,0.7,1.3,1.5c25,1.6,79.4,2.5,133.7-13.4c0,0-51.4,24.8-132.7,14.6c7.9,8.1,40.5,32.2,127.2,3.3c17.8-5.9,17.8-5.9,6,0&#10;&#9;&#9;&#9;&#9;&#9;c0,0-34.9,20.7-93.8,26.6c0,0,1.7,4.4,8.2,8.7c16-0.6,65.9-4.5,114.2-29.3c0,0-42.8,32.5-113.6,29.6&#10;&#9;&#9;&#9;&#9;&#9;c14.2,8.7,49.6,15.8,136-19.9c0,0,10.9-3,3.3,1.5c-7.7,4.4-62.5,27.9-105.5,31.1c0,0,5.1,4.4,16.2,7.5&#10;&#9;&#9;&#9;&#9;&#9;c23.2-4,68.7-13.7,111.2-34.5c0,0-38.5,26.4-109.2,35c20.6,5,59.9,5.8,125.3-26c0,0,8.2-1.7,1.9,1.5c-6.1,3.3-47.9,26.2-84,29.7&#10;&#9;&#9;&#9;&#9;&#9;c-2.8,0.4,9.3,4.4,28.3,4.6c16.1-3.8,44.6-12.6,70.9-31.1c0,0-22.3,22.6-64.4,30.9c21.7-0.8,50.5-7,76.9-28.2&#10;&#9;&#9;&#9;&#9;&#9;c0,0,21.4,14.2,32.3,19.1v85.9c-8.8-3.9-17.5-7.5-25.5-11.7c-6.7-3.4-13.1-7.5-17.1-11.4c-2-2-6-10.4-0.9-15&#10;&#9;&#9;&#9;&#9;&#9;c4.4-1.9,11.9-0.8,16.5,0.8l0.1-0.3c9.2,1.4,17.3-2.8,19.1-13.1c1.6-10.4-2.4-17.5-11.3-19.2v-0.3c-10.8-2-20.3-2.5-32.7,1.9&#10;&#9;&#9;&#9;&#9;&#9;c-6,2.3-12.4,6.9-16.4,13.3c-4.1,6.4-5.5,13.5-5.9,19.3c-0.1,3,0,5.8,0.1,8.5c0.2,2.6,1.4,8,2.9,10.7c3,6.7,7.3,11.1,11.4,14.5&#10;&#9;&#9;&#9;&#9;&#9;c8.3,6.6,16.4,10.1,24.4,13.4c5,2.1,9.9,3.6,14.8,5.4c-3.6,3.1-8,6.8-10.6,13.9c-2.8,7.6,0.3,16,3.6,20.2&#10;&#9;&#9;&#9;&#9;&#9;c2.7,3.5,5,6.6,7.9,10.1c4.7,5.8,10,11.1,15.2,16.1c-3,3.8-5.9,7.9-8.4,13c-4.2,8.7-4.8,21,1.9,29.4c3.2,4.2,6.7,7.8,10.3,10.9&#10;&#9;&#9;&#9;&#9;&#9;c-0.3,0.3-0.6,0.6-0.9,1c-5.7,5.8-12,11.4-16.7,19c-2.2,3.8-4.2,8.5-3.5,13.7c0.7,5,4.3,9.1,7,11.7c4.5,4.8,9.7,9,14.7,13.2v11&#10;&#9;&#9;&#9;&#9;&#9;c-1.9,2.5-3.2,5.2-3.6,8.1c0.7-2.6,2.3-5.3,3.6-7.9v11.5h10.6v-12.1c2.5,3.8,4.1,8.3,3.1,13.4c0.8-4.1,0.6-8.6-1.1-12.4&#10;&#9;&#9;&#9;&#9;&#9;c-0.5-1.2-1.3-2.1-2-3.2v-7.3c5.5-4.8,11.2-9.5,16.3-15c2.6-2.5,6.2-6.5,6.8-11.7c0.6-5.2-1.4-9.9-3.7-13.7&#10;&#9;&#9;&#9;&#9;&#9;c-4.9-7.5-11.2-13-17-18.8c-0.2-0.1-0.3-0.3-0.5-0.5c3.4-3.1,6.7-6.5,9.8-10.6c6.6-8.5,5.9-20.7,1.4-29.4&#10;&#9;&#9;&#9;&#9;&#9;c-2.6-5.2-5.7-9.3-8.9-13.2c5.2-5.3,10.6-10.8,15.3-16.8c2.9-3.5,5.2-6.5,7.8-10.2c3.1-4.1,6.3-12.6,3.3-20.2&#10;&#9;&#9;&#9;&#9;&#9;c-2.5-6.8-6.7-10.2-10.2-13.2c4.8-1.8,9.4-3.3,14.2-5.4c7.9-3.4,16-7.1,24.1-13.8c4-3.4,8.3-8.1,11.3-14.7&#10;&#9;&#9;&#9;&#9;&#9;c1.4-2.8,2.5-8.3,2.5-10.7c0.3-2.8,0.3-5.5,0.2-8.5c-0.3-5.9-2-12.8-6.1-19.3c-4.2-6.3-10.8-10.8-16.7-13&#10;&#9;&#9;&#9;&#9;&#9;c-12.4-4.2-21.8-3.5-32.7-1.4l0.1,0.3c-8.9,1.8-12.8,9-11.1,19.3c2,10.4,10.1,14.4,19.3,12.8v0.3c4.6-1.6,12.1-2.9,16.6-1&#10;&#9;&#9;&#9;&#9;&#9;c5,4.5,1.4,13-0.7,15c-3.9,4.2-10.2,8-16.8,11.5c-7.6,4.2-15.9,7.9-24.4,11.7v-85.7c11-5,32.2-19.1,32.2-19.1&#10;&#9;&#9;&#9;&#9;&#9;c26.4,21.2,55.1,27.3,76.8,28.2c-41.9-8.3-64.4-30.9-64.4-30.9c26.4,18.6,54.8,27.3,70.9,31.1c19.1-0.2,31.1-4.2,28.3-4.6&#10;&#9;&#9;&#9;&#9;&#9;c-36-3.6-77.9-26.4-84-29.7c-6.2-3.1,2-1.5,2-1.5c65.4,31.8,104.7,31,125.2,26c-70.6-8.6-109.1-35-109.1-35&#10;&#9;&#9;&#9;&#9;&#9;c42.3,20.8,87.9,30.5,111.1,34.5c11.1-3.1,16.2-7.5,16.2-7.5c-43-3.2-97.7-26.7-105.4-31.1c-7.7-4.4,3.2-1.5,3.2-1.5&#10;&#9;&#9;&#9;&#9;&#9;c86.2,35.7,121.7,28.6,135.8,19.9c-70.7,2.9-113.4-29.6-113.4-29.6c48.3,24.8,98,28.7,114,29.3c6.6-4.2,8.3-8.7,8.3-8.7&#10;&#9;&#9;&#9;&#9;&#9;c-58.9-5.9-93.9-26.6-93.9-26.6c-11.7-5.9-11.7-5.9,5.9,0c86.8,28.9,119.3,4.8,127.4-3.3c-81.4,10.2-132.9-14.6-132.9-14.6&#10;&#9;&#9;&#9;&#9;&#9;C931.2,339.7,985.5,338.7,1010.6,337.1z M698.4,524.8c-1.4-2.6-0.9-3-0.7-3.2c0.6-1.8,7.5-6.4,13.9-9.1v30.6&#10;&#9;&#9;&#9;&#9;&#9;c-2.3-2.7-4.8-5.5-6.8-8.5C702.7,531.7,700.4,528,698.4,524.8z M709.3,597.8c-3.5-5-2.8-12,0.5-17.5c0.5-0.9,1.3-1.6,1.9-2.4&#10;&#9;&#9;&#9;&#9;&#9;v22.9C711,599.8,710,598.8,709.3,597.8z M700.1,657c-6.2-5.9-6.3-12.8-1.5-18.8c3.6-4.8,8.3-8.8,13.1-13v44.2&#10;&#9;&#9;&#9;&#9;&#9;C707.8,665.4,703.6,661.4,700.1,657z M736.6,637.5c5.1,6.1,5,12.9-1.1,18.8c-4,5.1-8.7,9.8-13.2,14.5v-46.9&#10;&#9;&#9;&#9;&#9;&#9;C727.6,628.1,732.8,632.4,736.6,637.5z M725.5,598c-0.8,1.5-2.1,2.8-3.2,4.2v-24.6c0.7,1,1.7,1.9,2.3,2.9&#10;&#9;&#9;&#9;&#9;&#9;C728,586,728.9,592.9,725.5,598z M735.2,524.1c-1.9,3.3-4.3,7-6.3,10c-2,2.9-4.4,5.6-6.6,8.4v-30.1c6.4,2.5,12.9,6.8,13.5,8.5&#10;&#9;&#9;&#9;&#9;&#9;C736.1,521.1,736.5,521.6,735.2,524.1z" style="fill: rgb(57, 79, 86);"/>
				<path class="st128" d="M707.9,696.4c-0.3-1.5,0.1-2.8,0.3-4.2C707.8,693.6,707.6,695,707.9,696.4z" style="fill: rgb(57, 79, 86);"/>
			</g>
		</g></g></svg>
